<?xml version="1.0" encoding="utf-8"?>
<!-- Generator: Adobe Illustrator 27.5.0, SVG Export Plug-In . SVG Version: 6.00 Build 0)  -->
<svg version="1.1" id="Capa_1" xmlns="http://www.w3.org/2000/svg" xmlns:xlink="http://www.w3.org/1999/xlink" x="0px" y="0px"
	 viewBox="0 0 1927 2336" style="enable-background:new 0 0 1927 2336;" xml:space="preserve">
<path style="fill:#D2DB76;" d="M310.068,742.275c0.403,0.728,0.809,1.454,1.218,2.178c19.121,33.878,43.974,69.476,73.19,102.987
	c0.858,0.986,1.723,1.97,2.589,2.952c1.734,1.964,3.482,3.919,5.246,5.868c0.881,0.973,1.766,1.945,2.656,2.915
	c1.777,1.94,3.57,3.87,5.377,5.791c0.903,0.961,1.81,1.919,2.72,2.874c0.911,0.956,1.825,1.909,2.743,2.859
	c1.376,1.426,2.761,2.846,4.152,4.26c2.784,2.828,5.598,5.631,8.443,8.407c0.949,0.925,1.901,1.848,2.855,2.767
	c0.955,0.919,1.913,1.836,2.875,2.748c1.443,1.37,2.892,2.732,4.349,4.086c0.972,0.903,1.947,1.803,2.924,2.699l1.468,1.341
	c0.981,0.893,1.964,1.782,2.952,2.668c2.96,2.657,5.95,5.282,8.967,7.871c1.507,1.295,3.023,2.581,4.545,3.858
	c1.521,1.277,3.05,2.545,4.585,3.804c1.024,0.839,2.049,1.674,3.079,2.505c1.029,0.831,2.061,1.657,3.097,2.479
	c1.035,0.822,2.072,1.64,3.113,2.453c1.041,0.813,2.084,1.622,3.13,2.425c1.047,0.804,2.096,1.604,3.148,2.399
	c2.103,1.59,4.217,3.16,6.343,4.712c1.594,1.164,3.194,2.316,4.8,3.458c0.535,0.381,1.071,0.76,1.608,1.138
	c1.073,0.756,2.148,1.507,3.226,2.253c2.157,1.492,4.324,2.963,6.501,4.412c1.089,0.725,2.18,1.444,3.273,2.158
	c1.094,0.715,2.19,1.423,3.289,2.126c1.099,0.703,2.199,1.401,3.303,2.092c1.103,0.692,2.209,1.379,3.317,2.059
	c1.662,1.021,3.33,2.029,5.002,3.023s3.35,1.976,5.033,2.945c1.683,0.968,3.371,1.922,5.064,2.863
	c3.387,1.881,6.792,3.707,10.217,5.474c1.141,0.589,2.285,1.172,3.432,1.748c1.717,0.864,3.441,1.714,5.169,2.548
	c1.152,0.556,2.306,1.106,3.462,1.648c0.578,0.272,1.156,0.542,1.736,0.81c1.736,0.804,3.478,1.593,5.224,2.366
	c0.581,0.258,1.163,0.513,1.746,0.767c2.332,1.017,4.671,2.005,7.017,2.964c0.587,0.241,1.173,0.478,1.762,0.715
	c1.174,0.472,2.351,0.938,3.53,1.396c1.178,0.458,2.359,0.908,3.541,1.351c1.772,0.665,3.549,1.312,5.331,1.943
	c1.187,0.42,2.375,0.832,3.566,1.238c2.382,0.81,4.769,1.589,7.163,2.336c1.795,0.561,3.594,1.104,5.397,1.629
	c2.403,0.7,4.812,1.368,7.228,2.002c1.208,0.318,2.416,0.627,3.627,0.928c0.606,0.15,1.211,0.298,1.818,0.444
	c1.818,0.438,3.638,0.858,5.462,1.258c1.216,0.267,2.433,0.526,3.653,0.776c1.828,0.375,3.659,0.729,5.493,1.065
	c1.223,0.224,2.446,0.439,3.672,0.645c1.837,0.309,3.679,0.598,5.521,0.867c1.229,0.179,2.46,0.349,3.69,0.51
	c1.231,0.161,2.464,0.313,3.697,0.456c3.7,0.428,7.411,0.773,11.13,1.033c1.24,0.086,2.481,0.163,3.723,0.231
	c4.967,0.27,9.95,0.386,14.946,0.342c0.547-0.004,1.094-0.013,1.642-0.021c-1.089,1.3-2.182,2.564-3.269,3.82
	c-2.393,2.762-4.867,5.618-7.214,8.774c-0.668,0.901-1.385,1.797-2.108,2.701c-2.676,3.346-5.44,6.805-6.71,11.196
	c-0.781,2.71-1.06,6.586,0.504,9.344c0.899,1.584,2.299,2.667,4.047,3.127c0.734,0.193,1.459,0.282,2.173,0.282
	c3.911,0,7.445-2.636,9.636-5.024c-0.466,2.345-0.893,4.557-1.291,6.57c-0.596,3.018-1.107,6.218-0.05,9.107
	c1.954,5.338,8.294,7.473,13.908,8.371c6.959,1.113,13.969,1.38,20.993,1.117c4.599-0.172,9.188-0.6,13.738-1.279
	c9.803,57.349,9.612,117.12,9.425,175.142c-0.285,87.895-0.578,178.781,34.214,260.573c12.536,29.468,29.494,57.231,45.894,84.082
	c17.21,28.169,35.003,57.301,47.535,88.232c17.126,42.277,24.662,88.401,31.947,133.005c2.128,13.025,4.256,26.041,6.612,38.98
	c9.48,52.088,22.937,103.92,40.002,154.055c33.119,97.306,76.172,166.855,130.884,211.064c9.046,18.78,19.824,35.927,32.361,51.505
	c0.581,0.723,1.44,1.1,2.297,1.1c0.651,0,1.301-0.213,1.848-0.651c1.268-1.022,1.469-2.877,0.449-4.147
	c-9.786-12.161-18.482-25.31-26.099-39.477c8.884,6.463,18.061,12.298,27.539,17.514l1.423,0.366c1.036,0,2.044-0.55,2.585-1.526
	c0.784-1.428,0.265-3.219-1.163-4.006c-12.707-6.992-24.866-15.13-36.497-24.434c-27.982-58.796-38.8-133.989-32.972-227.857
	c3.265-52.543,10.488-105.308,21.471-156.829c2.736-12.832,5.714-25.65,8.685-38.47c10.298-44.339,20.941-90.187,21.183-136.458
	c0.179-33.856-5.241-67.808-10.482-100.643c-4.93-30.859-10.022-62.766-10.402-94.357c-1.06-87.664,33.537-171.04,67-251.672
	c22.336-53.835,45.349-109.298,58.194-166.554c3.927,0.775,7.892,1.363,11.876,1.756c6.993,0.692,14.008,0.854,21.022,0.168
	c5.657-0.553,12.116-2.295,14.392-7.505c1.233-2.819,0.918-6.045,0.507-9.093c-1.408-10.442-3.232-26.178-7.784-38.346
	c1.88-0.323,2.801-0.766,3.099-0.935c0.893-0.504,1.396-1.394,1.446-2.341c68.688,4.929,136.347-19.452,193.854-57.506
	c1.796-1.188,3.586-2.389,5.37-3.604c1.786-1.214,3.564-2.441,5.338-3.682c6.207-4.341,12.343-8.84,18.403-13.488
	c1.732-1.328,3.457-2.668,5.176-4.02c0.859-0.677,1.717-1.356,2.574-2.038c1.711-1.364,3.417-2.74,5.117-4.129
	c1.699-1.388,3.392-2.788,5.077-4.2c2.529-2.117,5.042-4.261,7.54-6.43c2.497-2.169,4.978-4.363,7.445-6.583
	c2.466-2.219,4.915-4.464,7.347-6.733c1.622-1.512,3.236-3.036,4.843-4.57c3.213-3.068,6.396-6.179,9.548-9.331
	c1.575-1.576,3.143-3.163,4.703-4.759c1.559-1.597,3.112-3.203,4.655-4.82c1.543-1.616,3.078-3.243,4.604-4.88
	c1.528-1.637,3.045-3.283,4.556-4.939c1.51-1.656,3.011-3.321,4.504-4.996c2.239-2.513,4.459-5.046,6.659-7.601
	c1.466-1.703,2.924-3.415,4.372-5.136c1.449-1.721,2.889-3.451,4.319-5.19c0.715-0.87,1.427-1.742,2.138-2.616
	c1.42-1.748,2.833-3.504,4.234-5.27c1.403-1.765,2.796-3.539,4.179-5.321c1.383-1.782,2.758-3.573,4.122-5.372
	c1.364-1.799,2.718-3.607,4.063-5.421c1.345-1.815,2.679-3.638,4.004-5.469c2.65-3.662,5.259-7.356,7.828-11.08
	c1.926-2.793,3.829-5.603,5.708-8.429c0.626-0.943,1.25-1.886,1.871-2.832c1.243-1.891,2.473-3.79,3.694-5.695
	c1.221-1.906,2.43-3.819,3.63-5.738c1.199-1.92,2.387-3.846,3.565-5.779c1.765-2.899,3.506-5.815,5.222-8.744
	c1.144-1.953,2.276-3.912,3.397-5.877c5.605-9.827,10.923-19.809,15.935-29.927c1.004-2.023,1.994-4.052,2.973-6.086
	c0.489-1.017,0.975-2.035,1.457-3.055c0.966-2.039,1.92-4.084,2.861-6.133c2.352-5.123,4.626-10.277,6.817-15.459
	c12.278-29.02,22.017-58.922,28.806-89.231c1.653-7.385,3.13-14.795,4.429-22.221c0.218-1.247,0.432-2.495,0.639-3.744
	c0.181-1.085,0.358-2.17,0.53-3.257c0.691-4.343,1.32-8.691,1.885-13.043c0.158-1.217,0.31-2.435,0.458-3.653
	c0.234-1.926,0.456-3.854,0.665-5.781c0.249-2.3,0.482-4.6,0.695-6.9c0.202-2.18,0.388-4.359,0.557-6.541
	c0.164-2.108,0.311-4.216,0.444-6.325c0.073-1.162,0.143-2.325,0.207-3.488c0.119-2.181,0.224-4.362,0.31-6.543
	c0.13-3.271,0.22-6.543,0.273-9.814c0.019-1.09,0.032-2.18,0.041-3.27c0.007-0.817,0.011-1.635,0.013-2.452
	c0.007-2.452-0.008-4.904-0.046-7.354c-0.015-1.007-0.036-2.014-0.059-3.019l-0.023-0.837c-0.018-0.744-0.037-1.487-0.061-2.229
	l-0.031-0.934c-0.022-0.711-0.049-1.423-0.076-2.133l-0.037-0.924c-0.032-0.775-0.066-1.55-0.102-2.325l-0.032-0.68
	c-0.046-0.943-0.096-1.884-0.149-2.825l-0.012-0.219c-0.059-1.045-0.122-2.089-0.189-3.132l-0.019-0.276
	c-0.059-0.906-0.122-1.81-0.187-2.714l-0.059-0.786c-0.056-0.767-0.117-1.534-0.178-2.3l-0.064-0.782
	c-0.064-0.779-0.131-1.558-0.2-2.338l-0.064-0.724c-0.079-0.872-0.161-1.743-0.245-2.613l-0.038-0.393
	c-0.204-2.075-0.424-4.147-0.66-6.216l-0.033-0.289c-0.107-0.932-0.216-1.862-0.33-2.792l-0.054-0.436
	c-0.108-0.869-0.217-1.739-0.33-2.607l-0.073-0.559c-0.121-0.927-0.246-1.853-0.374-2.778l-0.027-0.202
	c-0.438-3.146-0.911-6.283-1.423-9.413l-0.009-0.049c-0.165-1.014-0.336-2.027-0.509-3.04l-0.026-0.159
	c-0.133-0.77-0.268-1.54-0.404-2.309l-0.159-0.88l-0.257-1.423l-0.233-1.252l-0.181-0.962l-0.269-1.404l-0.176-0.907l-0.275-1.391
	l-0.172-0.859l-0.3-1.475l-0.153-0.741c-0.109-0.527-0.22-1.055-0.331-1.581l-0.133-0.622c-0.118-0.555-0.237-1.109-0.358-1.663
	l-0.103-0.471c-0.133-0.61-0.267-1.219-0.403-1.828l-0.031-0.133c-44.302-197.889-235.075-355.526-446.169-283.352
	c-89.948,30.754-164.983,98.274-213.635,179.941c-16.344,27.436-30.739,57.301-42.434,88.514c-0.665-1.763-1.338-3.522-2.026-5.275
	c-0.796-2.03-1.609-4.053-2.436-6.07c-0.827-2.016-1.671-4.025-2.53-6.028c-0.389-0.908-0.782-1.814-1.179-2.718l-0.435-0.984
	c-0.268-0.606-0.537-1.213-0.808-1.819l-0.439-0.977c-0.273-0.604-0.547-1.207-0.822-1.81l-0.443-0.967
	c-0.289-0.626-0.579-1.251-0.87-1.876l-0.405-0.866c-0.336-0.716-0.676-1.43-1.016-2.144l-0.282-0.594
	c-0.436-0.908-0.876-1.816-1.317-2.72l-0.232-0.472c-0.369-0.753-0.739-1.503-1.114-2.254l-0.389-0.774
	c-0.313-0.624-0.626-1.247-0.941-1.869l-0.488-0.957c-0.316-0.618-0.634-1.235-0.954-1.852l-0.413-0.795
	c-0.382-0.732-0.765-1.464-1.152-2.193l-0.237-0.452c-0.957-1.803-1.929-3.598-2.912-5.384l-0.345-0.623
	c-0.381-0.689-0.764-1.376-1.147-2.061l-0.37-0.659c-0.39-0.691-0.782-1.382-1.176-2.072l-0.341-0.595
	c-0.427-0.745-0.857-1.488-1.289-2.231l-0.221-0.381c-1.579-2.704-3.187-5.388-4.827-8.05l-0.13-0.21
	c-0.502-0.814-1.006-1.626-1.513-2.435l-0.185-0.295c-0.513-0.819-1.03-1.636-1.55-2.45l-0.093-0.148
	c-0.742-1.163-1.492-2.321-2.245-3.476l-0.202-0.309c-0.727-1.113-1.462-2.221-2.2-3.326l-0.284-0.424
	c-0.734-1.096-1.473-2.188-2.218-3.275l-0.25-0.365c-3.251-4.74-6.598-9.405-10.039-13.993l-0.044-0.059
	c-118.786-158.34-348.393-225.14-512.433-81.397c-71.495,62.648-115.216,153.63-129.157,247.663
	c-14.943,100.79-2.125,216.887,47.587,306.616L310.068,742.275z M657.35,1029.448c-1.705,2.327-4.774,4.507-7.176,3.654
	c-0.504-0.887-0.489-2.995,0.032-4.801c0.942-3.26,3.228-6.122,5.65-9.152c0.766-0.956,1.523-1.906,2.234-2.862
	c1.797-2.422,3.648-4.622,5.581-6.865c-0.645,3.74-1.537,7.608-2.669,11.573C660.164,1023.942,659.138,1027.003,657.35,1029.448z
	 M1140.309,979.539c-2.454,1.501-6.117,2.365-8.023,0.648c-0.127-1.013,0.685-2.957,1.854-4.426c2.108-2.658,5.31-4.432,8.703-6.312
	c1.071-0.596,2.137-1.187,3.157-1.8c2.58-1.555,5.131-2.886,7.769-4.228c-2.015,3.214-4.313,6.453-6.865,9.69
	C1145.009,975.514,1142.901,977.953,1140.309,979.539z M922.904,808.021c1.012-1.954,2.013-3.917,3.003-5.887
	c1.98-3.941,3.916-7.914,5.81-11.916c0.947-2.001,1.882-4.01,2.808-6.025c1.848-4.031,3.654-8.092,5.415-12.179
	c0.44-1.022,0.877-2.045,1.312-3.07c0.869-2.05,1.727-4.108,2.574-6.171c0.846-2.063,1.682-4.133,2.506-6.209
	c0.412-1.038,0.822-2.078,1.228-3.119c1.219-3.124,2.412-6.26,3.581-9.41c0.389-1.05,0.774-2.102,1.158-3.154
	c0.767-2.105,1.523-4.217,2.266-6.334c0.745-2.117,1.477-4.239,2.197-6.367c0.721-2.127,1.429-4.26,2.126-6.398
	c0.528-1.621,1.049-3.246,1.563-4.872c1.963,5.5,4.009,10.99,6.138,16.462c0.478,1.23,0.961,2.459,1.448,3.687
	c0.488,1.229,0.979,2.455,1.474,3.681c0.496,1.227,0.996,2.451,1.5,3.674c2.52,6.117,5.146,12.202,7.877,18.243
	c1.093,2.417,2.202,4.826,3.329,7.227c0.282,0.6,0.564,1.2,0.848,1.799c0.567,1.198,1.139,2.395,1.715,3.59
	c0.576,1.194,1.157,2.387,1.742,3.577c0.876,1.785,1.763,3.565,2.659,5.341c10.456,20.706,22.221,40.678,35.321,59.367
	c0.749,1.068,1.501,2.131,2.258,3.191c1.893,2.648,3.814,5.271,5.762,7.864c1.169,1.556,2.347,3.102,3.535,4.638
	c1.189,1.535,2.387,3.059,3.596,4.573c0.805,1.009,1.615,2.014,2.428,3.013c0.407,0.5,0.816,0.999,1.226,1.496
	c0.818,0.994,1.641,1.983,2.468,2.968c3.31,3.936,6.689,7.791,10.14,11.558c0.863,0.942,1.73,1.877,2.601,2.808
	c1.743,1.861,3.504,3.699,5.282,5.514c0.889,0.908,1.782,1.809,2.68,2.705l1.351,1.339c0.902,0.889,1.809,1.774,2.721,2.651
	c2.735,2.633,5.508,5.211,8.323,7.732c1.406,1.261,2.824,2.507,4.251,3.738c0.951,0.821,1.908,1.635,2.868,2.443
	c2.881,2.423,5.802,4.786,8.765,7.086c0.987,0.767,1.979,1.526,2.975,2.279c0.996,0.753,1.997,1.498,3.002,2.237
	c1.508,1.108,3.026,2.199,4.555,3.275c3.056,2.15,6.152,4.234,9.289,6.25c2.092,1.344,4.202,2.656,6.329,3.938
	c1.063,0.641,2.132,1.274,3.206,1.899c1.073,0.625,2.15,1.242,3.232,1.851c2.164,1.218,4.346,2.405,6.546,3.558
	c1.1,0.577,2.204,1.144,3.314,1.704c1.663,0.84,3.338,1.661,5.022,2.463c1.123,0.534,2.25,1.06,3.382,1.578
	c1.133,0.518,2.269,1.027,3.409,1.526c2.781,1.219,5.589,2.385,8.424,3.499c-1.507,0.79-3.003,1.547-4.49,2.299
	c-3.254,1.644-6.624,3.343-9.993,5.365c-0.962,0.582-1.964,1.138-2.978,1.699c-3.743,2.076-7.619,4.224-10.458,7.801
	c-1.751,2.203-3.484,5.682-3.087,8.832c0.23,1.809,1.112,3.341,2.551,4.432c1.728,1.313,3.738,1.803,5.737,1.803
	c2.531,0,5.051-0.786,6.988-1.695c-1.323,1.991-2.558,3.875-3.692,5.584c-1.699,2.563-3.389,5.33-3.509,8.403
	c-0.223,5.681,4.83,10.066,9.679,13.031c6.013,3.676,12.396,6.588,18.991,9.016c4.321,1.59,8.727,2.939,13.194,4.042
	c-12.741,56.77-35.651,111.98-57.888,165.571c-33.687,81.182-68.52,165.128-67.449,254.002c0.386,32.022,5.512,64.149,10.471,95.218
	c5.206,32.598,10.585,66.308,10.413,99.684c-0.236,45.609-10.805,91.131-21.028,135.154c-2.983,12.855-5.967,25.707-8.714,38.574
	c-11.041,51.803-18.304,104.859-21.586,157.693c-5.523,89.002,3.812,161.521,28.442,219.452
	c-49.404-43.732-88.808-109.878-119.63-200.437c-16.971-49.862-30.356-101.408-39.784-153.209
	c-2.348-12.907-4.469-25.889-6.589-38.876c-7.34-44.926-14.932-91.382-32.304-134.266c-12.714-31.383-30.635-60.721-47.968-89.095
	c-16.291-26.669-33.134-54.242-45.503-83.316c-34.315-80.678-34.023-170.948-33.741-258.246c0.188-58.286,0.38-118.33-9.51-176.167
	c3.926-0.777,7.816-1.741,11.65-2.891c6.732-2.02,13.28-4.537,19.506-7.839c5.023-2.663,10.334-6.731,10.458-12.414
	c0.068-3.075-1.45-5.94-2.99-8.602c-5.273-9.123-12.945-22.983-21.782-32.507c1.616-1.014,2.299-1.773,2.511-2.043
	c0.635-0.805,0.762-1.82,0.449-2.716l1.381-0.458c2.237-0.753,4.461-1.538,6.671-2.352c0.75-0.277,1.501-0.556,2.248-0.84
	c1.179-0.448,2.354-0.904,3.525-1.369c1.582-0.629,3.158-1.274,4.725-1.935l1.034-0.438c0.983-0.419,1.964-0.843,2.942-1.274
	c1.15-0.507,2.296-1.023,3.437-1.547c1.712-0.785,3.415-1.59,5.108-2.412c1.128-0.548,2.252-1.104,3.372-1.669
	c1.12-0.564,2.236-1.136,3.348-1.716c1.668-0.87,3.326-1.757,4.974-2.662c1.649-0.905,3.287-1.826,4.916-2.765
	c1.086-0.626,2.167-1.259,3.245-1.9c0.539-0.32,1.077-0.643,1.613-0.967c2.146-1.296,4.275-2.621,6.386-3.975
	c1.055-0.677,2.108-1.361,3.154-2.052c0.524-0.346,1.046-0.693,1.568-1.041c2.084-1.396,4.152-2.819,6.203-4.27
	c0.512-0.363,1.024-0.727,1.534-1.093c2.041-1.464,4.065-2.954,6.07-4.47c1.003-0.758,2.002-1.522,2.996-2.293
	c1.49-1.156,2.971-2.327,4.442-3.511c0.98-0.789,1.956-1.585,2.928-2.387c1.458-1.202,2.904-2.418,4.341-3.648
	c0.702-0.6,1.401-1.205,2.097-1.812c0.508-0.441,1.014-0.884,1.518-1.329c2.556-2.253,5.08-4.546,7.57-6.881l1.471-1.388
	c0.692-0.656,1.38-1.317,2.066-1.979c3.408-3.288,6.753-6.651,10.03-10.082l1.31-1.378c0.905-0.957,1.804-1.92,2.699-2.888
	c0.827-0.894,1.649-1.792,2.468-2.694l1.273-1.413c1.27-1.417,2.531-2.843,3.779-4.28c1.665-1.915,3.313-3.848,4.94-5.797
	c0.815-0.974,1.622-1.953,2.428-2.936c0.625-0.764,1.245-1.53,1.865-2.299c0.576-0.715,1.15-1.432,1.721-2.151
	c0.395-0.497,0.788-0.996,1.181-1.495c1.962-2.496,3.895-5.016,5.797-7.558c0.381-0.509,0.761-1.017,1.138-1.528
	c0.756-1.02,1.508-2.044,2.253-3.071c2.612-3.595,5.165-7.231,7.656-10.903c3.627-5.345,7.164-10.782,10.608-16.304
	c1.147-1.841,2.285-3.69,3.414-5.55c3.382-5.578,6.671-11.24,9.866-16.979c2.13-3.826,4.217-7.686,6.263-11.58
	C921.891,809.974,922.399,808.999,922.904,808.021z"/>
<path style="fill:#D2DB76;" d="M959.07,713.006c-0.648-1.856-1.287-3.713-1.917-5.571c-0.419-1.238-0.835-2.477-1.247-3.716
	c-1.646-4.955-3.226-9.911-4.738-14.864c-0.757-2.476-1.497-4.952-2.221-7.425c-0.361-1.236-0.72-2.472-1.073-3.708
	c-0.177-0.617-0.353-1.235-0.527-1.853c-0.348-1.235-0.694-2.469-1.035-3.703c-0.853-3.084-1.679-6.163-2.48-9.236
	c-0.321-1.229-0.636-2.457-0.949-3.685c-0.157-0.614-0.312-1.227-0.465-1.839c-0.308-1.226-0.611-2.451-0.911-3.674
	c-0.3-1.224-0.596-2.446-0.887-3.667c-0.292-1.221-0.579-2.44-0.862-3.659c-0.851-3.654-1.663-7.295-2.44-10.92
	c-0.258-1.208-0.514-2.415-0.763-3.62c-0.376-1.807-0.743-3.61-1.1-5.409c-0.239-1.199-0.472-2.396-0.703-3.591
	c-2.532-13.142-4.573-26.026-6.126-38.516c-0.103-0.821-0.202-1.643-0.299-2.466l-0.049-0.434c-0.082-0.703-0.161-1.406-0.238-2.109
	l-0.002-0.011c-7.607-69.303,5.068-143.261,30.412-210.891c-0.665-1.763-1.338-3.522-2.026-5.275
	c-0.796-2.03-1.609-4.053-2.436-6.07c-0.827-2.016-1.671-4.025-2.53-6.028c-0.389-0.908-0.782-1.814-1.179-2.718l-0.435-0.984
	c-0.268-0.606-0.537-1.213-0.808-1.819l-0.439-0.977c-0.273-0.604-0.547-1.207-0.822-1.81l-0.443-0.967
	c-0.289-0.626-0.579-1.251-0.87-1.876l-0.405-0.866c-0.336-0.716-0.676-1.43-1.016-2.144l-0.282-0.594
	c-0.436-0.908-0.876-1.816-1.317-2.72l-0.232-0.472c-0.369-0.753-0.739-1.503-1.114-2.254l-0.389-0.774
	c-0.313-0.624-0.626-1.247-0.941-1.869l-0.488-0.957c-0.316-0.618-0.634-1.235-0.954-1.852l-0.413-0.795
	c-0.382-0.732-0.765-1.464-1.152-2.193l-0.237-0.452c-0.957-1.803-1.929-3.598-2.912-5.384l-0.345-0.623
	c-0.381-0.689-0.764-1.376-1.147-2.061l-0.37-0.659c-0.39-0.691-0.782-1.382-1.176-2.072l-0.341-0.595
	c-0.427-0.745-0.857-1.488-1.289-2.231l-0.221-0.381c-1.579-2.703-3.187-5.387-4.827-8.05l-0.13-0.21
	c-0.502-0.814-1.006-1.626-1.513-2.435l-0.185-0.295c-0.513-0.819-1.03-1.636-1.55-2.45l-0.093-0.148
	c-0.742-1.163-1.492-2.321-2.245-3.476l-0.202-0.309c-0.727-1.113-1.462-2.221-2.2-3.326l-0.284-0.424
	c-0.734-1.096-1.473-2.188-2.218-3.275l-0.25-0.365c-3.251-4.74-6.598-9.405-10.039-13.993l-0.044-0.059
	c-118.786-158.34-348.393-225.14-512.433-81.397c-71.495,62.648-115.216,153.63-129.157,247.663
	c-14.943,100.79-2.125,216.887,47.587,306.616l0.132,0.237c0.403,0.728,0.809,1.454,1.218,2.178
	c19.121,33.878,43.974,69.476,73.19,102.987c0.858,0.986,1.723,1.97,2.589,2.952c1.734,1.964,3.482,3.919,5.246,5.868
	c0.881,0.973,1.766,1.945,2.656,2.915c1.777,1.94,3.57,3.87,5.377,5.791c0.903,0.961,1.81,1.919,2.72,2.874
	c0.911,0.956,1.825,1.909,2.743,2.859c1.376,1.426,2.761,2.846,4.152,4.26c2.784,2.828,5.598,5.631,8.443,8.407
	c0.949,0.925,1.901,1.848,2.855,2.767c0.955,0.919,1.913,1.836,2.875,2.748c1.443,1.37,2.892,2.732,4.349,4.086
	c0.972,0.903,1.947,1.803,2.924,2.699l1.468,1.341c0.981,0.893,1.964,1.782,2.952,2.668c2.96,2.657,5.95,5.282,8.967,7.871
	c1.507,1.295,3.023,2.581,4.545,3.858c1.521,1.277,3.05,2.545,4.585,3.804c1.024,0.839,2.049,1.674,3.079,2.505
	c1.029,0.831,2.061,1.657,3.097,2.479c1.035,0.822,2.072,1.64,3.113,2.453c1.041,0.813,2.084,1.622,3.13,2.425
	c1.047,0.804,2.096,1.604,3.148,2.399c2.103,1.59,4.217,3.16,6.343,4.712c1.594,1.164,3.194,2.316,4.8,3.458
	c0.535,0.381,1.071,0.76,1.608,1.138c1.073,0.756,2.148,1.507,3.226,2.253c2.157,1.492,4.324,2.963,6.501,4.412
	c1.089,0.725,2.18,1.444,3.273,2.158c1.094,0.715,2.19,1.423,3.289,2.126c1.099,0.703,2.199,1.401,3.303,2.092
	c1.103,0.692,2.209,1.379,3.317,2.059c1.662,1.021,3.33,2.029,5.002,3.023s3.35,1.976,5.033,2.945
	c1.683,0.968,3.371,1.922,5.064,2.863c3.387,1.881,6.792,3.707,10.217,5.474c1.141,0.589,2.285,1.172,3.432,1.748
	c1.717,0.864,3.441,1.714,5.169,2.548c1.152,0.556,2.306,1.106,3.462,1.648c0.578,0.272,1.156,0.542,1.736,0.81
	c1.736,0.804,3.478,1.593,5.224,2.366c0.581,0.258,1.163,0.513,1.746,0.767c2.332,1.017,4.671,2.005,7.017,2.964
	c0.587,0.241,1.173,0.478,1.762,0.715c1.174,0.472,2.351,0.938,3.53,1.396c1.178,0.458,2.359,0.908,3.541,1.351
	c1.772,0.665,3.549,1.312,5.331,1.943c1.187,0.42,2.375,0.832,3.566,1.238c2.382,0.81,4.769,1.589,7.163,2.336
	c1.795,0.561,3.594,1.104,5.397,1.629c2.403,0.7,4.812,1.368,7.228,2.002c1.208,0.318,2.416,0.627,3.627,0.928
	c0.606,0.15,1.211,0.298,1.818,0.444c1.818,0.438,3.638,0.858,5.462,1.258c1.216,0.267,2.433,0.526,3.653,0.776
	c1.828,0.375,3.659,0.729,5.493,1.065c1.223,0.224,2.446,0.439,3.672,0.645c1.837,0.309,3.679,0.598,5.521,0.867
	c1.229,0.179,2.46,0.349,3.69,0.51c1.231,0.161,2.464,0.313,3.697,0.456c3.7,0.428,7.411,0.773,11.13,1.033
	c1.24,0.086,2.481,0.163,3.723,0.231c4.967,0.27,9.95,0.386,14.946,0.342c0.547-0.004,1.094-0.013,1.642-0.021
	c-1.089,1.3-2.182,2.564-3.269,3.82c-2.393,2.762-4.867,5.618-7.214,8.774c-0.668,0.901-1.385,1.797-2.108,2.701
	c-2.676,3.346-5.44,6.805-6.71,11.196c-0.781,2.71-1.06,6.586,0.504,9.344c0.899,1.584,2.299,2.667,4.047,3.127
	c0.734,0.193,1.459,0.282,2.173,0.282c3.911,0,7.445-2.636,9.636-5.024c-0.466,2.345-0.893,4.557-1.291,6.57
	c-0.596,3.018-1.107,6.218-0.05,9.107c1.954,5.338,8.294,7.473,13.908,8.371c6.959,1.113,13.969,1.38,20.993,1.117
	c4.599-0.172,9.188-0.6,13.738-1.279c1.945-0.291,3.883-0.627,5.812-1.008c3.926-0.777,7.816-1.741,11.65-2.891
	c6.732-2.02,13.28-4.537,19.506-7.839c5.023-2.663,10.334-6.731,10.458-12.414c0.068-3.075-1.45-5.94-2.99-8.602
	c-5.273-9.123-12.945-22.983-21.782-32.507c1.616-1.014,2.299-1.773,2.511-2.043c0.635-0.805,0.762-1.82,0.449-2.716l1.381-0.458
	c2.237-0.753,4.461-1.538,6.671-2.352c0.75-0.277,1.501-0.556,2.248-0.84c1.179-0.448,2.354-0.904,3.525-1.369
	c1.582-0.629,3.158-1.274,4.725-1.935l1.034-0.438c0.983-0.419,1.964-0.843,2.942-1.274c1.15-0.507,2.296-1.023,3.437-1.547
	c1.712-0.785,3.415-1.59,5.108-2.412c1.128-0.548,2.252-1.104,3.372-1.669c1.12-0.564,2.236-1.136,3.348-1.716
	c1.668-0.87,3.326-1.757,4.974-2.662c1.649-0.905,3.287-1.826,4.916-2.765c1.086-0.626,2.167-1.259,3.245-1.9
	c0.539-0.32,1.077-0.643,1.613-0.967c2.146-1.296,4.275-2.621,6.386-3.975c1.055-0.677,2.108-1.361,3.154-2.052
	c0.524-0.346,1.046-0.693,1.568-1.041c2.084-1.396,4.152-2.819,6.203-4.27c0.512-0.363,1.024-0.727,1.534-1.093
	c2.041-1.464,4.065-2.954,6.07-4.47c1.003-0.758,2.002-1.522,2.996-2.293c1.49-1.156,2.971-2.327,4.442-3.511
	c0.98-0.789,1.956-1.585,2.928-2.387c1.458-1.202,2.904-2.418,4.341-3.648c0.702-0.6,1.401-1.205,2.097-1.812
	c0.508-0.441,1.014-0.884,1.518-1.329c2.556-2.253,5.08-4.546,7.57-6.881l1.471-1.388c0.692-0.656,1.38-1.317,2.066-1.979
	c3.408-3.288,6.753-6.651,10.03-10.082l1.31-1.378c0.905-0.957,1.804-1.92,2.699-2.888c0.827-0.894,1.649-1.792,2.468-2.694
	l1.273-1.413c1.27-1.417,2.531-2.843,3.779-4.28c1.665-1.915,3.313-3.848,4.94-5.797c0.815-0.974,1.622-1.953,2.428-2.936
	c0.625-0.764,1.245-1.53,1.865-2.299c0.576-0.715,1.15-1.432,1.721-2.151c0.395-0.497,0.788-0.996,1.181-1.495
	c1.962-2.496,3.895-5.016,5.797-7.558c0.381-0.509,0.761-1.017,1.138-1.528c0.756-1.02,1.508-2.044,2.253-3.071
	c2.612-3.595,5.165-7.231,7.656-10.903c3.627-5.345,7.164-10.782,10.608-16.304c1.147-1.841,2.285-3.69,3.414-5.55
	c3.382-5.578,6.671-11.24,9.866-16.979c2.13-3.826,4.217-7.686,6.263-11.58c0.511-0.973,1.019-1.948,1.525-2.926
	c1.012-1.954,2.013-3.917,3.003-5.887c1.98-3.941,3.916-7.914,5.81-11.916c0.947-2.001,1.882-4.01,2.808-6.025
	c1.848-4.031,3.654-8.092,5.415-12.179c0.44-1.022,0.877-2.045,1.312-3.07c0.869-2.05,1.727-4.108,2.574-6.171
	c0.846-2.063,1.682-4.133,2.506-6.209c0.412-1.038,0.822-2.078,1.228-3.119c1.219-3.124,2.412-6.26,3.581-9.41
	c0.389-1.05,0.774-2.102,1.158-3.154c0.767-2.105,1.523-4.217,2.266-6.334c0.745-2.117,1.477-4.239,2.197-6.367
	c0.721-2.127,1.429-4.26,2.126-6.398c0.528-1.621,1.049-3.246,1.563-4.872C959.986,715.609,959.525,714.307,959.07,713.006z
	 M657.35,1029.448c-1.705,2.327-4.774,4.507-7.176,3.654c-0.504-0.887-0.489-2.995,0.032-4.801c0.942-3.26,3.228-6.122,5.65-9.152
	c0.766-0.956,1.523-1.906,2.234-2.862c1.797-2.422,3.648-4.622,5.581-6.865c-0.645,3.74-1.537,7.608-2.669,11.573
	C660.164,1023.942,659.138,1027.003,657.35,1029.448z"/>
<path style="fill:#D2DB76;" d="M665.431,998.244l0.083-0.101l1.063-0.774l0.002-0.003h0.004l1.004-0.233l0.139-0.003
	c51.688-0.654,61.006-9.817,61.093-9.909c1.085-1.146,2.917-1.279,4.112-0.248l0.878,1.29l1.381-0.458
	c2.237-0.753,4.461-1.538,6.671-2.352c0.75-0.277,1.501-0.556,2.248-0.84c1.179-0.448,2.354-0.904,3.525-1.369
	c1.582-0.629,3.158-1.274,4.725-1.935l1.034-0.438c0.983-0.419,1.964-0.843,2.942-1.274c1.15-0.507,2.296-1.023,3.437-1.547
	c1.712-0.785,3.415-1.59,5.108-2.412c1.128-0.548,2.252-1.104,3.372-1.669c1.12-0.564,2.237-1.136,3.348-1.716
	c1.668-0.87,3.326-1.757,4.974-2.662c1.649-0.905,3.287-1.826,4.916-2.765c1.086-0.626,2.167-1.259,3.245-1.9
	c0.539-0.32,1.077-0.643,1.613-0.967c2.146-1.296,4.275-2.621,6.386-3.975c1.055-0.677,2.108-1.36,3.154-2.052
	c0.524-0.346,1.046-0.693,1.568-1.041c2.084-1.396,4.152-2.819,6.203-4.27c0.512-0.363,1.024-0.727,1.534-1.093
	c2.041-1.464,4.065-2.954,6.07-4.47c1.003-0.758,2.002-1.522,2.996-2.293c1.49-1.156,2.971-2.327,4.442-3.511
	c0.98-0.789,1.956-1.585,2.928-2.387c1.458-1.202,2.904-2.418,4.341-3.648c0.702-0.6,1.401-1.205,2.097-1.812
	c0.507-0.441,1.014-0.884,1.518-1.329c2.556-2.253,5.08-4.546,7.57-6.881l1.471-1.388c0.692-0.656,1.38-1.317,2.066-1.979
	c3.408-3.288,6.753-6.651,10.03-10.082l1.31-1.378c0.905-0.957,1.804-1.92,2.699-2.888c0.827-0.894,1.649-1.792,2.468-2.694
	l1.273-1.413c1.27-1.417,2.531-2.843,3.779-4.28c1.665-1.915,3.313-3.848,4.94-5.797c0.815-0.974,1.622-1.953,2.428-2.936
	c0.625-0.764,1.245-1.53,1.865-2.299c0.576-0.715,1.15-1.432,1.721-2.151c0.395-0.497,0.788-0.996,1.181-1.495
	c1.962-2.496,3.895-5.016,5.797-7.558c0.381-0.509,0.761-1.017,1.138-1.528c0.756-1.02,1.508-2.044,2.253-3.071
	c2.612-3.595,5.165-7.231,7.656-10.903c3.627-5.345,7.164-10.782,10.608-16.304c1.147-1.841,2.285-3.69,3.414-5.55
	c3.382-5.578,6.671-11.24,9.866-16.979c2.13-3.826,4.217-7.686,6.263-11.58c0.511-0.973,1.019-1.948,1.525-2.926
	c1.012-1.954,2.013-3.917,3.003-5.887c1.98-3.941,3.916-7.914,5.81-11.916c0.947-2.001,1.882-4.01,2.808-6.025
	c1.848-4.031,3.654-8.092,5.415-12.179c0.44-1.022,0.877-2.045,1.312-3.07c0.869-2.05,1.727-4.108,2.574-6.171
	c0.846-2.063,1.682-4.133,2.506-6.209c0.412-1.038,0.822-2.078,1.228-3.119c1.219-3.124,2.412-6.26,3.581-9.41
	c0.389-1.05,0.774-2.102,1.158-3.154c0.767-2.105,1.523-4.217,2.266-6.334c0.745-2.117,1.477-4.239,2.197-6.367
	c0.721-2.127,1.429-4.26,2.126-6.398c0.528-1.621,1.049-3.246,1.563-4.872c-0.464-1.3-0.924-2.601-1.379-3.903
	c-0.648-1.856-1.287-3.713-1.917-5.571c-0.419-1.238-0.835-2.477-1.247-3.716c-1.646-4.955-3.226-9.911-4.738-14.864
	c-0.757-2.476-1.497-4.952-2.221-7.425c-0.361-1.236-0.72-2.472-1.073-3.708c-0.177-0.617-0.353-1.235-0.527-1.853
	c-0.348-1.235-0.694-2.469-1.035-3.703c-0.853-3.084-1.679-6.163-2.48-9.236c-0.321-1.229-0.636-2.457-0.949-3.685
	c-0.157-0.614-0.312-1.227-0.465-1.839c-0.308-1.226-0.611-2.451-0.911-3.674c-0.3-1.224-0.596-2.446-0.887-3.667
	c-0.292-1.221-0.579-2.44-0.862-3.659c-0.851-3.654-1.663-7.295-2.44-10.92c-0.258-1.208-0.514-2.415-0.763-3.62
	c-0.376-1.807-0.743-3.61-1.1-5.409c-0.239-1.199-0.472-2.396-0.703-3.591c-2.532-13.142-4.573-26.026-6.126-38.516
	c-0.103-0.821-0.202-1.643-0.299-2.466l-0.049-0.434c-0.082-0.703-0.161-1.406-0.238-2.109l-0.002-0.011
	c-7.607-69.303,5.068-143.261,30.412-210.891c-0.665-1.763-1.338-3.522-2.026-5.275c-0.796-2.03-1.609-4.053-2.436-6.07
	c-0.827-2.016-1.671-4.025-2.53-6.028c-0.389-0.908-0.782-1.814-1.179-2.718l-0.435-0.984c-0.268-0.606-0.537-1.213-0.808-1.819
	l-0.439-0.977c-0.273-0.604-0.547-1.207-0.822-1.81l-0.443-0.967c-0.289-0.626-0.579-1.251-0.87-1.876l-0.405-0.866
	c-0.336-0.716-0.676-1.43-1.016-2.144l-0.282-0.594c-0.436-0.908-0.876-1.816-1.317-2.72l-0.232-0.472
	c-0.369-0.753-0.739-1.503-1.114-2.254l-0.389-0.774c-0.313-0.624-0.626-1.247-0.941-1.869l-0.488-0.957
	c-0.316-0.618-0.634-1.235-0.954-1.852l-0.413-0.795c-0.382-0.732-0.765-1.464-1.152-2.193l-0.237-0.452
	c-0.957-1.803-1.929-3.598-2.912-5.384l-0.345-0.623c-0.381-0.689-0.764-1.376-1.147-2.061l-0.37-0.659
	c-0.39-0.691-0.782-1.382-1.176-2.072l-0.341-0.595c-0.427-0.745-0.857-1.488-1.289-2.231l-0.221-0.381
	c-1.579-2.703-3.187-5.387-4.827-8.05l-0.13-0.21c-0.502-0.814-1.006-1.626-1.513-2.435l-0.185-0.295
	c-0.513-0.819-1.03-1.636-1.55-2.45l-0.093-0.148c-25.188-39.462-57.033-74.181-93.23-102.603
	c32.568,42.261,55.912,91.438,65.174,141.801c1.24-0.762,2.771-1.218,4.595-1.218c11.403,0,11.384,17.693,0,17.693
	c-0.751,0-1.452-0.078-2.105-0.222c3.581,29.274,2.264,58.74-4.893,87.286c-16.513,44.589-64.047,82.37-56.322,128.914
	c26.096,121.214,35.654,322.89-124.33,331.507c-61.783-0.042-120.157-40.371-182.063-28.674
	c-35.624,6.732-72.708,3.193-104.593-14.062c-67.44-36.495-111.636-106.649-144.485-185.373
	c8.005,25.434,18.18,49.875,30.767,72.605l0.132,0.237c0.403,0.728,0.809,1.454,1.218,2.178
	c19.121,33.878,43.974,69.476,73.19,102.987c0.858,0.986,1.723,1.97,2.589,2.952c1.734,1.964,3.482,3.919,5.246,5.868
	c0.881,0.973,1.766,1.945,2.656,2.915c1.777,1.94,3.57,3.87,5.377,5.791c0.903,0.961,1.81,1.919,2.72,2.874
	c0.911,0.956,1.825,1.909,2.743,2.859c1.376,1.426,2.761,2.846,4.152,4.26c2.784,2.828,5.598,5.631,8.443,8.407
	c0.949,0.925,1.901,1.848,2.855,2.767c0.955,0.919,1.913,1.836,2.875,2.748c1.443,1.37,2.892,2.732,4.349,4.086
	c0.972,0.903,1.947,1.803,2.924,2.699l1.468,1.341c0.981,0.893,1.964,1.782,2.952,2.668c2.96,2.657,5.95,5.282,8.967,7.871
	c1.509,1.295,3.023,2.581,4.545,3.858c1.521,1.277,3.05,2.545,4.585,3.804c1.024,0.839,2.049,1.674,3.079,2.505
	c1.029,0.831,2.061,1.657,3.097,2.479c1.035,0.822,2.072,1.64,3.113,2.453c1.041,0.813,2.084,1.622,3.13,2.425
	c1.047,0.804,2.096,1.604,3.148,2.399c2.103,1.59,4.217,3.16,6.343,4.712c1.594,1.164,3.194,2.316,4.8,3.458
	c0.535,0.381,1.071,0.76,1.608,1.138c1.073,0.756,2.148,1.507,3.226,2.253c2.157,1.492,4.324,2.963,6.501,4.412
	c1.089,0.725,2.18,1.444,3.273,2.158c1.094,0.715,2.19,1.423,3.289,2.126c1.099,0.703,2.199,1.401,3.303,2.092
	c1.103,0.692,2.209,1.379,3.317,2.059c1.662,1.021,3.33,2.029,5.002,3.023s3.35,1.976,5.033,2.945
	c1.683,0.968,3.371,1.922,5.064,2.863c3.387,1.881,6.792,3.707,10.217,5.474c1.141,0.589,2.285,1.172,3.432,1.748
	c1.717,0.864,3.441,1.714,5.169,2.548c1.152,0.556,2.306,1.106,3.462,1.648c0.578,0.272,1.156,0.542,1.736,0.81
	c1.736,0.804,3.478,1.593,5.224,2.366c0.581,0.258,1.163,0.513,1.746,0.767c2.332,1.017,4.671,2.005,7.017,2.964
	c0.587,0.241,1.173,0.478,1.762,0.715c1.174,0.472,2.351,0.938,3.53,1.396c1.178,0.458,2.359,0.908,3.541,1.351
	c1.772,0.665,3.549,1.312,5.331,1.943c1.187,0.42,2.375,0.832,3.566,1.238c2.382,0.81,4.769,1.589,7.163,2.336
	c1.795,0.561,3.594,1.104,5.397,1.629c2.403,0.7,4.812,1.368,7.228,2.002c1.208,0.318,2.416,0.627,3.627,0.928
	c0.606,0.15,1.211,0.298,1.818,0.444c1.818,0.438,3.638,0.858,5.462,1.258c1.216,0.267,2.433,0.526,3.653,0.776
	c1.828,0.375,3.659,0.729,5.493,1.065c1.223,0.224,2.446,0.439,3.672,0.645c1.838,0.309,3.679,0.598,5.521,0.867
	c1.229,0.179,2.46,0.349,3.69,0.51c1.231,0.161,2.464,0.313,3.697,0.456c3.7,0.428,7.411,0.773,11.13,1.033
	c1.24,0.086,2.481,0.163,3.723,0.231c4.967,0.27,9.95,0.386,14.946,0.342c0.547-0.004,1.094-0.013,1.642-0.021
	C664.371,999.54,664.902,998.9,665.431,998.244z"/>
<path style="fill:#D2DB76;" d="M362.388,397.611c30.92,32.095,69.885,12.687,95.035-17.31c-4.309-4.965-2.175-14.96,6.383-14.96
	c1.518,0,2.833,0.316,3.945,0.86c5.765-9.069,10.18-18.489,12.755-27.352c9.858-33.922,2.414-76.777-21.958-103.376
	c-17.268-18.846-43.899-16.463-63.747-3.03c-34.727,23.502-57.877,79.769-56.978,112.315
	C338.374,364.668,349.35,384.079,362.388,397.611z"/>
<path style="fill:#D2DB76;" d="M309.054,530.654c8.349,6.779,19.16,9.856,29.854,11.007c54.342,5.847,69.009-49.488,45.133-90.054
	c-13.402-22.769-46.138-43.721-71.728-27.317c-21.903,14.04-25.259,52.391-20.694,75.427
	C294.012,511.794,299.395,522.811,309.054,530.654z"/>
<path style="fill:#B8C466;" d="M552.925,272.502c11.384,0,11.403-17.693,0-17.693C541.542,254.809,541.522,272.502,552.925,272.502z
	"/>
<path style="fill:#B8C466;" d="M695.26,782.394c11.385,0,11.404-17.693,0-17.693C683.876,764.701,683.857,782.394,695.26,782.394z"
	/>
<path style="fill:#B8C466;" d="M815.191,439.995c11.385,0,11.404-17.693,0-17.693C803.806,422.302,803.788,439.995,815.191,439.995z
	"/>
<path style="fill:#B8C466;" d="M412.976,553.536c-11.384,0-11.404,17.693,0,17.693C424.361,571.229,424.381,553.536,412.976,553.536
	z"/>
<path style="fill:#B8C466;" d="M611.074,505.135c11.385,0,11.403-17.693,0-17.693C599.689,487.442,599.67,505.135,611.074,505.135z"
	/>
<path style="fill:#B8C466;" d="M876.1,806.988c11.385,0,11.404-17.693,0-17.693C864.716,789.295,864.698,806.988,876.1,806.988z"/>
<path style="fill:#B8C466;" d="M467.291,833.698c-11.384,0-11.404,17.693,0,17.693C478.675,851.391,478.693,833.698,467.291,833.698
	z"/>
<path style="fill:#B8C466;" d="M779.852,215.301c11.386,0,11.404-17.693,0-17.693C768.468,197.607,768.449,215.301,779.852,215.301z
	"/>
<path style="fill:#B8C466;" d="M336.728,394.355c11.385,0,11.403-17.693,0-17.693C325.343,376.662,325.325,394.355,336.728,394.355z
	"/>
<path style="fill:#B8C466;" d="M421.785,200.481c11.385,0,11.403-17.693,0-17.693C410.399,182.788,410.381,200.481,421.785,200.481z
	"/>
<path style="fill:#B8C466;" d="M353.934,704.015c-11.385,0-11.403,17.693,0,17.693C365.318,721.708,365.338,704.015,353.934,704.015
	z"/>
<path style="fill:#B8C466;" d="M704.253,948.836c11.385,0,11.404-17.693,0-17.693C692.869,931.143,692.85,948.836,704.253,948.836z"
	/>
<path style="fill:#B8C466;" d="M777.05,610.453c11.384,0,11.403-17.693,0-17.693C765.665,592.76,765.646,610.453,777.05,610.453z"/>
<path style="fill:#B8C466;" d="M518.103,686.646c11.385,0,11.403-17.693,0-17.693C506.718,668.953,506.7,686.646,518.103,686.646z"
	/>
<path style="fill:#B8C466;" d="M457.423,380.302c1.424,1.641,3.55,2.733,6.383,2.733c9.869,0,11.195-13.293,3.945-16.833
	c-1.113-0.544-2.428-0.86-3.945-0.86C455.249,365.342,453.114,375.337,457.423,380.302z"/>
<path style="fill:#B8C466;" d="M691.665,354.986c11.384,0,11.403-17.693,0-17.693C680.28,337.293,680.261,354.986,691.665,354.986z"
	/>
<path style="fill:#B8C466;" d="M895.855,349.834c0.653,0.144,1.353,0.222,2.105,0.222c11.384,0,11.403-17.693,0-17.693
	c-1.824,0-3.355,0.455-4.595,1.218C887.374,337.266,888.195,348.149,895.855,349.834z"/>
<path style="fill:#B8C466;" d="M627.787,158.475c11.385,0,11.404-17.693,0-17.693C616.403,140.782,616.384,158.475,627.787,158.475z
	"/>
<path style="fill:#B8C466;" d="M666.675,1022.614c1.952-6.839,3.225-13.43,3.801-19.631c40.224-0.752,55.159-6.689,60.373-9.963
	c1.616-1.014,2.299-1.773,2.511-2.043c0.635-0.805,0.762-1.82,0.449-2.716l-0.878-1.29c-1.195-1.031-3.026-0.898-4.112,0.248
	c-0.087,0.092-9.405,9.256-61.093,9.909l-0.139,0.003l-1.004,0.233h-0.004l-0.002,0.003l-1.063,0.774l-0.083,0.101
	c-0.529,0.656-1.06,1.297-1.592,1.931c-1.089,1.3-2.182,2.564-3.269,3.82c-2.393,2.762-4.867,5.618-7.214,8.774
	c-0.668,0.901-1.385,1.797-2.108,2.701c-2.676,3.346-5.44,6.805-6.71,11.196c-0.781,2.71-1.06,6.586,0.504,9.344
	c0.899,1.584,2.299,2.667,4.047,3.127c0.734,0.193,1.459,0.282,2.173,0.282c3.911,0,7.445-2.636,9.636-5.024
	c0.467-0.509,0.874-1.006,1.21-1.464C664.446,1029.736,665.684,1026.084,666.675,1022.614z M657.35,1029.448
	c-1.705,2.327-4.774,4.507-7.176,3.654c-0.504-0.887-0.489-2.995,0.032-4.801c0.942-3.26,3.228-6.122,5.65-9.152
	c0.766-0.956,1.523-1.906,2.234-2.862c1.797-2.422,3.648-4.622,5.581-6.865c-0.645,3.74-1.537,7.608-2.669,11.573
	C660.164,1023.942,659.138,1027.003,657.35,1029.448z"/>
<path style="fill:#B8C466;" d="M1118.487,1191.112c-33.687,81.182-68.52,165.128-67.449,254.002
	c0.386,32.022,5.512,64.149,10.471,95.218c5.206,32.598,10.585,66.308,10.413,99.684c-0.236,45.609-10.805,91.131-21.028,135.154
	c-2.983,12.855-5.967,25.707-8.714,38.574c-11.041,51.803-18.304,104.859-21.586,157.693
	c-5.523,89.002,3.812,161.521,28.442,219.452c-49.404-43.732-88.808-109.878-119.63-200.437
	c-16.971-49.862-30.356-101.408-39.784-153.209c-2.348-12.907-4.469-25.889-6.589-38.876c-7.34-44.926-14.932-91.382-32.304-134.266
	c-12.714-31.383-30.635-60.721-47.968-89.095c-16.291-26.669-33.134-54.242-45.503-83.316
	c-34.315-80.678-34.023-170.948-33.741-258.246c0.188-58.286,0.38-118.33-9.51-176.167c-1.93,0.381-3.867,0.717-5.812,1.008
	c9.803,57.349,9.612,117.12,9.425,175.142c-0.285,87.895-0.578,178.781,34.214,260.573c12.536,29.468,29.494,57.231,45.894,84.082
	c17.21,28.169,35.003,57.301,47.535,88.232c17.126,42.277,24.662,88.401,31.947,133.005c2.128,13.025,4.256,26.041,6.612,38.98
	c9.48,52.088,22.937,103.92,40.002,154.055c33.119,97.306,76.172,166.855,130.884,211.064c9.046,18.78,19.824,35.927,32.361,51.505
	c0.581,0.723,1.44,1.1,2.297,1.1c0.651,0,1.301-0.213,1.848-0.651c1.268-1.022,1.469-2.877,0.449-4.147
	c-9.786-12.161-18.482-25.31-26.099-39.477c8.884,6.463,18.061,12.298,27.539,17.514l1.423,0.366c1.036,0,2.044-0.55,2.585-1.526
	c0.784-1.428,0.265-3.219-1.163-4.006c-12.707-6.992-24.866-15.13-36.497-24.434c-27.982-58.796-38.8-133.989-32.972-227.857
	c3.265-52.543,10.488-105.308,21.471-156.829c2.736-12.832,5.714-25.65,8.685-38.47c10.298-44.339,20.941-90.187,21.183-136.458
	c0.179-33.856-5.241-67.808-10.482-100.643c-4.93-30.859-10.022-62.766-10.402-94.357c-1.06-87.664,33.537-171.04,67-251.672
	c22.336-53.835,45.349-109.298,58.194-166.554c-1.928-0.381-3.848-0.806-5.755-1.277
	C1163.633,1082.311,1140.724,1137.521,1118.487,1191.112z"/>
<path style="fill:#D2DB76;" d="M1670.297,463.969c-0.016-1.007-0.036-2.013-0.059-3.019l-0.023-0.837
	c-0.018-0.744-0.037-1.487-0.061-2.229l-0.031-0.934c-0.022-0.711-0.049-1.423-0.076-2.133l-0.037-0.924
	c-0.032-0.775-0.066-1.55-0.102-2.325l-0.032-0.68c-0.046-0.943-0.096-1.884-0.149-2.825l-0.012-0.219
	c-0.059-1.045-0.122-2.089-0.189-3.132l-0.019-0.276c-0.059-0.906-0.122-1.81-0.187-2.714l-0.059-0.786
	c-0.056-0.767-0.117-1.534-0.178-2.3l-0.064-0.782c-0.064-0.779-0.131-1.558-0.2-2.338l-0.064-0.724
	c-0.079-0.872-0.161-1.743-0.245-2.613l-0.038-0.393c-0.204-2.075-0.424-4.147-0.66-6.216l-0.033-0.289
	c-0.107-0.932-0.216-1.862-0.33-2.792l-0.054-0.436c-0.108-0.869-0.217-1.739-0.33-2.607l-0.073-0.559
	c-0.121-0.927-0.246-1.853-0.374-2.778l-0.027-0.202c-0.438-3.146-0.911-6.283-1.423-9.413l-0.009-0.049
	c-0.165-1.014-0.336-2.027-0.509-3.04l-0.026-0.159c-8.108-47.201-24.577-92.517-47.758-133.473
	c23.696,86.803,15.649,181.817-35.243,250.778c-32.228,34.959-90.557,51.826-101.114,97.811
	c-21.959,122.031-89.813,312.191-241.055,259.322c-57.125-23.534-95.777-83.031-157.481-95.754
	c-35.506-7.322-68.459-24.697-91.388-52.78c-48.495-59.399-62.693-141.09-63.138-226.391c-2.2,25.788-2.158,51.49,0.589,76.579
	l0.002,0.011c0.077,0.704,0.158,1.406,0.238,2.109l0.049,0.434c0.097,0.822,0.196,1.644,0.299,2.466
	c1.553,12.49,3.594,25.374,6.126,38.516c0.231,1.195,0.464,2.391,0.703,3.591c0.357,1.799,0.724,3.602,1.1,5.409
	c0.25,1.205,0.505,2.411,0.763,3.62c0.777,3.625,1.589,7.267,2.44,10.92c0.283,1.218,0.57,2.438,0.862,3.659
	c0.291,1.221,0.587,2.443,0.887,3.667c0.3,1.223,0.604,2.448,0.911,3.674c0.153,0.612,0.308,1.226,0.465,1.839
	c0.313,1.228,0.628,2.456,0.949,3.685c0.801,3.073,1.627,6.152,2.48,9.236c0.341,1.234,0.687,2.468,1.035,3.703
	c0.175,0.617,0.35,1.235,0.527,1.853c0.353,1.236,0.711,2.472,1.073,3.708c0.723,2.473,1.463,4.949,2.221,7.425
	c1.513,4.952,3.092,9.909,4.738,14.864c0.411,1.239,0.828,2.478,1.247,3.716c0.631,1.858,1.269,3.715,1.917,5.571
	c0.455,1.301,0.916,2.602,1.379,3.903c1.963,5.5,4.009,10.99,6.138,16.462c0.478,1.23,0.961,2.459,1.448,3.687
	c0.488,1.229,0.979,2.455,1.474,3.681c0.496,1.227,0.996,2.451,1.5,3.674c2.52,6.117,5.146,12.202,7.877,18.243
	c1.093,2.417,2.202,4.826,3.329,7.227c0.282,0.6,0.564,1.2,0.848,1.799c0.567,1.198,1.139,2.395,1.715,3.59
	c0.576,1.194,1.157,2.387,1.742,3.577c0.876,1.785,1.763,3.565,2.659,5.341c10.456,20.706,22.221,40.678,35.321,59.367
	c0.749,1.068,1.501,2.131,2.258,3.191c1.893,2.648,3.814,5.271,5.762,7.864c1.169,1.556,2.347,3.102,3.535,4.638
	c1.189,1.535,2.387,3.059,3.596,4.573c0.805,1.009,1.615,2.014,2.428,3.013c0.407,0.5,0.816,0.999,1.226,1.496
	c0.818,0.994,1.641,1.983,2.468,2.968c3.31,3.936,6.689,7.791,10.14,11.558c0.863,0.942,1.73,1.877,2.601,2.808
	c1.743,1.861,3.504,3.699,5.282,5.514c0.889,0.908,1.782,1.809,2.68,2.705l1.351,1.339c0.902,0.889,1.809,1.774,2.721,2.651
	c2.735,2.633,5.508,5.211,8.323,7.732c1.406,1.261,2.824,2.507,4.251,3.738c0.951,0.821,1.908,1.635,2.868,2.443
	c2.881,2.423,5.802,4.786,8.765,7.086c0.987,0.767,1.979,1.526,2.975,2.279c0.996,0.753,1.997,1.498,3.002,2.237
	c1.508,1.108,3.026,2.199,4.555,3.275c3.056,2.15,6.152,4.234,9.289,6.25c2.092,1.344,4.202,2.656,6.329,3.938
	c1.063,0.641,2.132,1.274,3.206,1.899c1.073,0.625,2.15,1.242,3.232,1.851c2.164,1.218,4.346,2.405,6.546,3.558
	c1.1,0.577,2.204,1.144,3.314,1.704c1.663,0.84,3.338,1.661,5.022,2.463c1.123,0.534,2.25,1.06,3.382,1.578
	c1.133,0.518,2.269,1.027,3.409,1.526c2.781,1.219,5.589,2.385,8.424,3.499c0.733-0.384,1.468-0.774,2.208-1.18l0.103-0.054
	l0.012-0.006l1.324-0.314l0.979,0.167l0.132,0.049c48.04,19.052,60.151,14.119,60.266,14.07c1.429-0.628,3.191-0.072,3.899,1.336
	c0.248,0.492,0.349,1.017,0.322,1.526c68.688,4.929,136.347-19.452,193.854-57.506c1.796-1.188,3.586-2.389,5.37-3.604
	c1.786-1.214,3.564-2.441,5.338-3.682c6.207-4.341,12.343-8.84,18.403-13.488c1.732-1.328,3.457-2.668,5.176-4.02
	c0.859-0.677,1.717-1.356,2.574-2.038c1.711-1.364,3.417-2.74,5.117-4.129c1.699-1.388,3.392-2.788,5.077-4.2
	c2.529-2.117,5.042-4.261,7.54-6.43c2.497-2.169,4.978-4.363,7.445-6.583c2.466-2.219,4.915-4.464,7.347-6.733
	c1.622-1.512,3.236-3.036,4.843-4.57c3.213-3.068,6.396-6.179,9.548-9.331c1.575-1.576,3.143-3.163,4.703-4.759
	c1.559-1.597,3.112-3.203,4.655-4.82c1.543-1.616,3.078-3.243,4.604-4.88c1.528-1.637,3.045-3.283,4.556-4.939
	c1.51-1.656,3.011-3.321,4.504-4.996c2.239-2.513,4.459-5.046,6.659-7.601c1.466-1.703,2.924-3.415,4.372-5.136
	c1.449-1.721,2.888-3.451,4.319-5.19c0.715-0.87,1.427-1.742,2.138-2.616c1.42-1.748,2.833-3.504,4.234-5.27
	c2.806-3.53,5.573-7.095,8.301-10.692c1.364-1.799,2.718-3.607,4.063-5.421c1.345-1.815,2.679-3.638,4.004-5.469
	c2.65-3.662,5.259-7.356,7.828-11.08c1.926-2.793,3.829-5.603,5.708-8.429c0.626-0.943,1.25-1.886,1.871-2.832
	c1.243-1.891,2.473-3.79,3.694-5.695c1.221-1.906,2.43-3.819,3.63-5.738c1.199-1.92,2.387-3.846,3.565-5.779
	c1.765-2.899,3.506-5.815,5.222-8.744c1.144-1.953,2.276-3.912,3.397-5.877c5.605-9.827,10.923-19.809,15.935-29.927
	c1.004-2.023,1.994-4.052,2.973-6.086c0.489-1.017,0.975-2.035,1.457-3.055c0.966-2.039,1.92-4.084,2.861-6.133
	c2.352-5.123,4.626-10.277,6.817-15.459c12.278-29.02,22.017-58.922,28.806-89.231c1.653-7.385,3.13-14.795,4.429-22.221
	c0.218-1.247,0.432-2.495,0.639-3.744c0.181-1.085,0.358-2.17,0.53-3.257c0.691-4.343,1.32-8.691,1.885-13.043
	c0.158-1.217,0.31-2.435,0.458-3.653c0.234-1.926,0.456-3.854,0.665-5.781c0.249-2.3,0.482-4.6,0.695-6.9
	c0.202-2.18,0.388-4.36,0.557-6.541c0.164-2.108,0.311-4.216,0.444-6.325c0.073-1.162,0.143-2.325,0.207-3.488
	c0.119-2.181,0.224-4.362,0.31-6.543c0.13-3.271,0.22-6.543,0.273-9.814c0.019-1.09,0.032-2.18,0.041-3.27
	C1670.357,470.505,1670.346,467.236,1670.297,463.969z"/>
<path style="fill:#E8F086;" d="M1239.375,273.573c22.017-27.625,31.428-70.091,19.003-103.959
	c-8.802-23.997-34.34-31.92-57.807-27.045c-17.722,3.683-35.771,13.833-51.491,26.629c0.841,0.443,1.464,1.288,1.572,2.303
	l2.126,19.968c0.173,1.618-1.002,3.07-2.62,3.242l-0.318,0.018c-1.486,0-2.764-1.123-2.926-2.638l-2.059-19.343
	c-18.723,16.235-33.583,35.923-39.692,52.031c-7.062,18.622-4.292,40.749,2.62,58.222
	C1131.247,342.324,1210.092,310.314,1239.375,273.573z"/>
<path style="fill:#E8F086;" d="M1031.289,407.3c48.036,26.073,82.645-19.527,75.988-66.126
	c-3.737-26.154-26.045-57.982-55.952-52.541c-15.5,2.82-28.1,16.472-36.635,31.919l1.076,10.122c0.173,1.619-1.002,3.07-2.62,3.243
	l-0.316,0.017c-1.487,0-2.766-1.123-2.927-2.638l-0.082-0.773c-2.971,6.945-5.111,13.868-6.319,20
	c-2.379,12.08-1.59,24.316,4.362,35.244C1013.008,395.214,1021.836,402.17,1031.289,407.3z"/>
<path style="fill:#B8C466;" d="M1226.366,968.997c-0.708-1.408-2.471-1.964-3.899-1.336c-0.115,0.049-12.227,4.982-60.266-14.07
	l-0.132-0.049l-0.979-0.167l-1.324,0.314l-0.012,0.006l-0.103,0.054c-0.74,0.406-1.475,0.796-2.208,1.18
	c-1.507,0.79-3.003,1.547-4.49,2.299c-3.254,1.644-6.624,3.343-9.993,5.365c-0.962,0.582-1.964,1.138-2.978,1.699
	c-3.743,2.076-7.619,4.224-10.458,7.801c-1.751,2.203-3.484,5.682-3.087,8.832c0.23,1.809,1.112,3.341,2.551,4.432
	c1.728,1.313,3.738,1.803,5.737,1.803c2.531,0,5.051-0.786,6.988-1.695c0.625-0.293,1.19-0.598,1.674-0.894
	c3.381-2.068,5.915-4.974,8.15-7.807c4.406-5.584,8.091-11.193,10.977-16.711c37.495,14.603,53.563,14.792,59.632,13.746
	c1.88-0.323,2.801-0.766,3.099-0.935c0.893-0.504,1.396-1.394,1.446-2.341C1226.716,970.014,1226.614,969.489,1226.366,968.997z
	 M1132.286,980.188c-0.127-1.013,0.685-2.957,1.854-4.426c2.108-2.658,5.31-4.432,8.703-6.312c1.071-0.596,2.137-1.187,3.157-1.8
	c2.58-1.555,5.131-2.886,7.769-4.228c-2.015,3.214-4.313,6.453-6.865,9.69c-1.894,2.402-4.002,4.841-6.594,6.427
	C1137.855,981.04,1134.192,981.904,1132.286,980.188z"/>
<path style="fill:#B8C466;" d="M1467.295,331.297c0.161,1.514,1.44,2.638,2.926,2.638l0.316-0.017
	c1.619-0.173,2.794-1.624,2.621-3.243l-2.125-19.968c-0.173-1.621-1.682-2.788-3.242-2.621c-1.619,0.173-2.794,1.624-2.621,3.243
	L1467.295,331.297z"/>
<path style="fill:#B8C466;" d="M1422.025,151.494c0.161,1.515,1.44,2.638,2.926,2.638l0.316-0.018
	c1.619-0.173,2.794-1.624,2.621-3.242l-2.126-19.968c-0.173-1.622-1.676-2.785-3.242-2.621c-1.619,0.173-2.794,1.624-2.621,3.242
	L1422.025,151.494z"/>
<path style="fill:#B8C466;" d="M1149.841,194.73l0.318-0.018c1.617-0.173,2.793-1.624,2.62-3.242l-2.126-19.968
	c-0.108-1.015-0.731-1.86-1.572-2.303c-0.5-0.264-1.077-0.386-1.67-0.317c-1.619,0.172-2.793,1.624-2.62,3.242l0.066,0.625
	l2.059,19.343C1147.077,193.607,1148.355,194.73,1149.841,194.73z"/>
<path style="fill:#B8C466;" d="M1012.831,333.935l0.316-0.017c1.618-0.173,2.793-1.624,2.62-3.243l-1.076-10.122l-1.048-9.846
	c-0.173-1.621-1.659-2.788-3.243-2.621c-1.618,0.173-2.794,1.624-2.621,3.243l2.043,19.195l0.082,0.773
	C1010.065,332.811,1011.344,333.935,1012.831,333.935z"/>
<path style="fill:#B8C466;" d="M1057.045,544.09c-0.172-1.621-1.653-2.807-3.243-2.62c-1.619,0.173-2.793,1.624-2.62,3.243
	l2.125,19.968c0.161,1.515,1.44,2.638,2.926,2.638l0.318-0.017c1.618-0.173,2.793-1.624,2.62-3.243L1057.045,544.09z"/>
<path style="fill:#B8C466;" d="M1353.149,808.436c0.161,1.515,1.44,2.638,2.926,2.638l0.316-0.017
	c1.619-0.173,2.793-1.624,2.621-3.243l-2.125-19.968c-0.173-1.621-1.682-2.825-3.242-2.621c-1.619,0.173-2.794,1.624-2.62,3.243
	L1353.149,808.436z"/>
<path style="fill:#B8C466;" d="M1233.226,667.506c-0.173-1.621-1.653-2.811-3.242-2.621c-1.619,0.173-2.793,1.624-2.621,3.243
	l2.125,19.964c0.162,1.515,1.441,2.638,2.927,2.638l0.316-0.018c1.619-0.172,2.793-1.624,2.62-3.242L1233.226,667.506z"/>
<path style="fill:#B8C466;" d="M1448.622,630.758c0.161,1.515,1.44,2.638,2.926,2.638l0.316-0.017
	c1.619-0.173,2.794-1.624,2.621-3.243l-2.126-19.968c-0.173-1.622-1.647-2.785-3.242-2.621c-1.619,0.173-2.794,1.624-2.62,3.243
	L1448.622,630.758z"/>
<path style="fill:#B8C466;" d="M1545.79,722.534c-0.173-1.621-1.687-2.819-3.242-2.62c-1.619,0.173-2.794,1.624-2.621,3.243
	l2.126,19.968c0.161,1.514,1.44,2.638,2.926,2.638l0.316-0.017c1.619-0.173,2.793-1.624,2.621-3.243L1545.79,722.534z"/>
<path style="fill:#B8C466;" d="M1204.89,885.23c0.161,1.514,1.44,2.638,2.925,2.638l0.318-0.018c1.618-0.172,2.793-1.624,2.62-3.242
	l-2.125-19.968c-0.172-1.622-1.653-2.787-3.243-2.621c-1.618,0.172-2.793,1.624-2.62,3.242L1204.89,885.23z"/>
<path style="fill:#B8C466;" d="M1030.541,702.566c-0.173-1.621-1.642-2.81-3.243-2.62c-1.618,0.173-2.794,1.624-2.621,3.242
	l2.126,19.968c0.161,1.514,1.44,2.638,2.925,2.638l0.317-0.018c1.619-0.172,2.794-1.624,2.62-3.242L1030.541,702.566z"/>
<path style="fill:#B8C466;" d="M1275.972,506.582c0.161,1.515,1.44,2.638,2.926,2.638l0.316-0.017
	c1.619-0.173,2.794-1.624,2.621-3.243l-2.126-19.968c-0.173-1.621-1.641-2.819-3.242-2.621c-1.619,0.173-2.793,1.624-2.62,3.243
	L1275.972,506.582z"/>
<path style="fill:#B8C466;" d="M1560.706,490.556c0.161,1.515,1.44,2.638,2.925,2.638l0.317-0.018
	c1.618-0.172,2.793-1.624,2.62-3.242l-2.125-19.968c-0.173-1.621-1.665-2.822-3.243-2.621c-1.618,0.172-2.793,1.624-2.62,3.242
	L1560.706,490.556z"/>
<path style="fill:#B8C466;" d="M1305.95,280.064c0.161,1.515,1.44,2.638,2.926,2.638l0.316-0.017
	c1.619-0.173,2.793-1.624,2.62-3.243l-2.125-19.965c-0.173-1.621-1.682-2.823-3.242-2.62c-1.619,0.172-2.794,1.624-2.621,3.242
	L1305.95,280.064z"/>
</svg>
