<?xml version="1.0" encoding="utf-8"?>
<!-- Generator: Adobe Illustrator 27.5.0, SVG Export Plug-In . SVG Version: 6.00 Build 0)  -->
<svg version="1.1" id="Capa_1" xmlns="http://www.w3.org/2000/svg" xmlns:xlink="http://www.w3.org/1999/xlink" x="0px" y="0px"
	 viewBox="0 0 2497 1803" style="enable-background:new 0 0 2497 1803;" xml:space="preserve">
<path style="fill:#28301C;" d="M2416.858,516.561c-29.845,15.851-59.635,31.581-89.419,47.093c-1.963-4.314-4.18-7.286-6.675-8.728
	c-89.241-51.59-352.568,74.578-373.06,175.601l-0.084,0.483l-0.016,0.133l-0.042,0.357l-0.015,0.206l-0.019,0.295l-0.007,0.23
	l-0.005,0.292l0.004,0.246l0.008,0.28l0.016,0.27l0.019,0.27l0.028,0.288l0.031,0.267l0.039,0.291l0.044,0.288l0.048,0.284
	l0.056,0.294l0.062,0.302l0.065,0.287l0.075,0.316l0.068,0.258l0.099,0.373l0.057,0.195l0.126,0.424l0.066,0.207l0.139,0.424
	l0.036,0.103l0.188,0.529l0.102,0.271l0.12,0.317l0.089,0.224l0.141,0.347l0.099,0.24l0.065,0.157
	c-12.585,4.937-25.204,9.769-37.862,14.49c-1.258-5.974-3.16-10.192-5.796-12.359c-79.634-65.453-360.01,16.082-396.703,112.411
	l-0.161,0.461c-14.2,1.629-28.4,3.063-42.595,4.312l-0.336-0.581c-55.187-87.063-347.002-97.24-411.962-17.204l-0.297,0.388
	l-0.087,0.126l-0.193,0.282l-0.109,0.175l-0.154,0.254l-0.112,0.199l-0.143,0.263l-0.101,0.202l-0.131,0.269l-0.109,0.24
	l-0.109,0.252l-0.106,0.264l-0.099,0.254l-0.104,0.289l-0.084,0.244l-0.099,0.305l-0.076,0.252l-0.097,0.339l-0.059,0.22
	l-0.096,0.375l-0.051,0.22l-0.089,0.399l-0.03,0.147c-15.815-2.134-31.569-4.435-47.256-6.896
	c-34.25-97.257-315.123-174.255-396.697-111.482l-0.377,0.308l-0.113,0.101l-0.257,0.234l-0.134,0.133l-0.222,0.224l-0.144,0.156
	l-0.209,0.233l-0.142,0.168l-0.193,0.238l-0.15,0.194l-0.183,0.244l-0.145,0.204l-0.173,0.251l-0.15,0.229l-0.16,0.253l-0.148,0.245
	l-0.153,0.263l-0.147,0.263l-0.145,0.269l-0.143,0.273l-0.139,0.281l-0.146,0.298l-0.106,0.233l-0.17,0.372l-0.057,0.136
	c-0.323,0.747-0.627,1.546-0.909,2.399l-0.002,0.004l-0.208,0.649l-0.013,0.042l-0.192,0.639l-0.023,0.081l-0.177,0.629l-0.03,0.115
	l-0.166,0.634l-0.033,0.126l-0.168,0.69l-0.015,0.059l-0.166,0.727l-0.018,0.081l-0.083,0.379
	c-14.607-4.777-29.079-9.635-43.407-14.565c-24.481-97.983-282.78-201.973-375.963-156.449
	c-36.508-17.831-70.583-35.262-101.943-51.877c-2.844-1.514-6.417-0.424-7.937,2.443c-1.519,2.862-0.424,6.417,2.443,7.937
	c32.209,17.065,64.606,33.579,97.138,49.525l-0.01,0.018l-0.2,0.336l-0.097,0.173l-0.23,0.41l-0.014,0.026
	c-0.301,0.554-0.592,1.141-0.877,1.758l-0.027,0.059l-0.238,0.53l-0.064,0.145l-0.254,0.599l-0.03,0.072l-0.26,0.646l-0.023,0.058
	l-0.251,0.656l-0.031,0.081l-0.241,0.661l-0.034,0.097l-0.237,0.683l-0.026,0.078l-0.245,0.743l-0.004,0.014l-0.286,0.914
	l-0.09,0.298l-0.211,0.719l-0.068,0.235l-0.246,0.884l-0.034,0.125l-0.277,1.054l-0.034,0.133l-0.231,0.935l-0.058,0.235
	l-0.224,0.96l-0.031,0.132c-0.177,0.777-0.349,1.573-0.515,2.389l-0.006,0.032l-0.245,1.24l-0.003,0.017
	c-15.726,81.671,17.029,347.858,29.042,439.001l0.077,0.582l0.001,0.003l0.001,0.012c1.646,12.478,15.328,18.833,25.756,12.907
	c0.802-0.456,1.586-0.981,2.342-1.585c13.486-10.763,31.881-25.548,53.161-42.915c0.824-0.672,1.652-1.348,2.484-2.028
	c13.114-10.713,27.271-22.367,42.012-34.636c0.833-0.693,1.667-1.387,2.504-2.084c1.151-0.959,2.305-1.922,3.463-2.888
	c2.987-2.493,5.996-5.009,9.021-7.546c1.078-0.903,2.158-1.809,3.24-2.718c3.531-2.965,7.083-5.955,10.651-8.968
	c0.868-0.733,1.736-1.467,2.604-2.202c4.494-3.8,9.012-7.634,13.54-11.493c0.6-0.512,1.2-1.023,1.802-1.537
	c0.877-0.749,1.755-1.498,2.634-2.25c1.527-1.304,3.053-2.611,4.582-3.92c0.602-0.515,1.203-1.031,1.805-1.547
	c1.805-1.55,3.611-3.101,5.416-4.656c1.204-1.036,2.408-2.073,3.61-3.112c2.728-2.354,5.453-4.713,8.175-7.075
	c0.558-0.484,1.115-0.969,1.672-1.453c0.641-0.557,1.282-1.115,1.923-1.673c0.802-0.696,1.601-1.393,2.401-2.091
	c3.068-2.674,6.127-5.351,9.175-8.028c1.189-1.044,2.376-2.087,3.561-3.131c1.184-1.043,2.368-2.086,3.548-3.129
	c2.361-2.086,4.713-4.17,7.054-6.251c4.098-3.643,8.163-7.277,12.185-10.897c0.575-0.517,1.148-1.034,1.722-1.55
	c1.418-1.278,2.83-2.555,4.236-3.829c3.142-2.844,6.254-5.676,9.332-8.494c1.114-1.021,2.223-2.038,3.329-3.054
	c0.595-0.547,1.189-1.094,1.782-1.641c1.567-1.444,3.125-2.884,4.672-4.319c2.755-2.555,5.479-5.095,8.166-7.618
	c1.059-0.994,2.113-1.986,3.161-2.975c1.573-1.484,3.131-2.96,4.677-4.43c1.006-0.957,2.007-1.913,3.003-2.864
	c1.04-0.995,2.075-1.988,3.102-2.976l1.501-1.447c1.51-1.456,3.003-2.905,4.481-4.344c0.967-0.941,1.925-1.878,2.877-2.812
	c1.445-1.416,2.874-2.825,4.285-4.223c1.883-1.866,3.736-3.715,5.557-5.545c0.911-0.916,1.813-1.827,2.707-2.733
	c2.684-2.719,5.292-5.398,7.822-8.031c0.824-0.858,1.64-1.709,2.446-2.557l1.288-1.357l1.218-1.289
	c0.807-0.857,1.605-1.708,2.393-2.554c0.789-0.847,1.568-1.687,2.336-2.522l1.146-1.248c0.76-0.83,1.51-1.652,2.25-2.47l1.102-1.222
	c1.095-1.217,2.166-2.422,3.214-3.611c1.747-1.984,3.43-3.928,5.043-5.832c0.645-0.761,1.28-1.517,1.903-2.265
	c0.624-0.747,1.235-1.49,1.836-2.224c0.6-0.735,1.19-1.462,1.767-2.183c2.888-3.603,5.485-7.031,7.764-10.263
	c0.456-0.646,0.899-1.285,1.329-1.916c0.43-0.631,0.848-1.254,1.252-1.868c3.099-4.712,5.423-8.946,6.88-12.637
	c14.373,4.907,28.733,9.69,43.074,14.346c-6.459,83.317,55.133,343.656,77.035,432.796l0.072,0.291l0.068,0.279l0.001,0.003
	l0.003,0.013c2.966,12.069,16.945,16.915,26.649,10.264l0.647-0.463l0.482-0.376l1.393-1.253c2.318-2.309,4.796-4.781,7.42-7.406
	l0.992-0.991c9.985-9.989,22.018-22.094,35.43-35.722c0.878-0.893,1.764-1.793,2.654-2.699l1.41-1.435
	c0.895-0.911,1.795-1.829,2.701-2.752c0.941-0.959,1.887-1.925,2.84-2.897c0.915-0.934,1.835-1.873,2.76-2.818l0.061-0.062
	c1.868-1.909,3.756-3.841,5.664-5.794c2.918-2.991,5.883-6.034,8.885-9.122c0.963-0.992,1.931-1.988,2.902-2.989
	c2.258-2.326,4.536-4.676,6.833-7.051c2.296-2.374,4.611-4.772,6.942-7.19c1.014-1.052,2.03-2.107,3.05-3.166
	c1.078-1.121,2.16-2.245,3.245-3.375c1.003-1.043,2.008-2.092,3.015-3.141l0.129-0.134c1.006-1.049,2.015-2.102,3.026-3.157
	c3.739-3.906,7.508-7.853,11.299-11.836c2.084-2.19,4.175-4.392,6.27-6.602l0.168-0.177c1.555-1.64,3.112-3.286,4.672-4.936
	c0.599-0.634,1.198-1.267,1.797-1.902c1.018-1.078,2.037-2.159,3.056-3.24l0.187-0.2c1.557-1.652,3.116-3.309,4.675-4.969
	l0.197-0.21c3.178-3.385,6.359-6.783,9.539-10.19l0.218-0.234c1.046-1.122,2.092-2.245,3.138-3.368
	c1.663-1.787,3.325-3.576,4.985-5.367c2.62-2.826,5.235-5.655,7.844-8.486l0.254-0.276c2.602-2.824,5.197-5.65,7.781-8.475
	l0.272-0.297c0.976-1.068,1.951-2.134,2.924-3.201c0.627-0.686,1.254-1.373,1.878-2.06c5.799-6.366,11.539-12.72,17.187-19.031
	c0.518-0.578,1.034-1.157,1.55-1.735c29.936-33.508,57.206-65.756,76.985-92.459c0.682-0.921,1.355-1.835,2.019-2.743
	c3.985-5.445,7.641-10.646,10.928-15.564c0.821-1.23,1.62-2.442,2.394-3.637c1.807-2.786,3.485-5.473,5.025-8.053l0.651-1.1
	c1.072-1.82,2.072-3.587,2.998-5.295c0.557-1.025,1.085-2.03,1.587-3.012c0.334-0.656,0.656-1.302,0.966-1.938l0.456-0.946
	c0.446-0.941,0.863-1.858,1.254-2.752c0.39-0.896,0.749-1.769,1.081-2.618c0.651-1.668,1.187-3.244,1.606-4.729
	c15.794,2.466,31.518,4.752,47.171,6.858c4.759,73.053,132.982,328.301,176.207,412.529c5.701,11.109,20.532,12.56,28.41,3.708
	l0.793-0.956l0.724-1.009l0.342-0.53c1.854-2.998,3.846-6.223,5.962-9.656l0.568-0.923c0.802-1.301,1.621-2.632,2.457-3.99
	l0.601-0.977c0.581-0.947,1.171-1.907,1.768-2.879l0.624-1.016c1.143-1.863,2.312-3.772,3.509-5.725l0.873-1.425l0.628-1.028
	l0.89-1.455c1.518-2.484,3.074-5.035,4.667-7.647l0.718-1.178c2.521-4.14,5.13-8.433,7.813-12.863l0.775-1.28
	c1.104-1.822,2.219-3.667,3.346-5.533l0.649-1.074c1.081-1.789,2.172-3.599,3.274-5.427l0.821-1.364
	c2.048-3.4,4.128-6.863,6.24-10.383c0.736-1.229,1.475-2.464,2.219-3.706c1.148-1.918,2.304-3.851,3.467-5.8
	c1.751-2.932,3.519-5.9,5.302-8.898c1.553-2.611,3.117-5.246,4.691-7.904l0.922-1.554c0.446-0.754,0.893-1.509,1.34-2.266
	l0.929-1.57c1.584-2.682,3.178-5.383,4.779-8.103c0.315-0.536,0.631-1.072,0.947-1.608c1.602-2.724,3.211-5.466,4.827-8.223
	c0.435-0.743,0.87-1.486,1.305-2.23c1.503-2.567,3.01-5.148,4.521-7.741c0.657-1.126,1.314-2.254,1.97-3.383
	c0.966-1.66,1.932-3.323,2.9-4.992c0.661-1.139,1.322-2.28,1.984-3.423c0.454-0.784,0.909-1.569,1.363-2.355
	c0.331-0.573,0.662-1.147,0.993-1.721c0.454-0.784,0.908-1.571,1.362-2.358l0.816-1.415c1.299-2.255,2.599-4.514,3.901-6.78
	c0.46-0.802,0.92-1.604,1.38-2.407l0.602-1.051c0.856-1.493,1.71-2.988,2.565-4.484c0.449-0.786,0.898-1.573,1.347-2.359
	c0.338-0.593,0.675-1.184,1.014-1.778c0.447-0.785,0.895-1.57,1.342-2.356c0.669-1.177,1.339-2.356,2.009-3.536
	c0.567-1,1.135-2,1.702-3l0.835-1.475c1.615-2.855,3.228-5.713,4.834-8.571c0.341-0.607,0.683-1.214,1.023-1.82
	c0.437-0.777,0.873-1.554,1.308-2.331c0.73-1.302,1.458-2.604,2.186-3.905c1.205-2.156,2.407-4.311,3.605-6.466
	c1.496-2.691,2.987-5.379,4.469-8.063c1.182-2.14,2.36-4.277,3.531-6.411c0.548-0.998,1.096-1.996,1.642-2.992
	c0.547-0.999,1.092-1.996,1.637-2.993c0.409-0.749,0.816-1.497,1.224-2.244c0.714-1.309,1.425-2.617,2.133-3.922
	c0.702-1.294,1.403-2.585,2.1-3.875c0.479-0.884,0.955-1.768,1.431-2.65c1.423-2.64,2.836-5.271,4.237-7.891
	c0.698-1.303,1.392-2.605,2.083-3.902c0.38-0.714,0.758-1.427,1.137-2.14c0.69-1.3,1.378-2.598,2.061-3.892
	c0.307-0.582,0.614-1.164,0.921-1.746c0.581-1.101,1.159-2.2,1.735-3.297c0.513-0.979,1.024-1.955,1.534-2.93
	c1.215-2.324,2.419-4.638,3.61-6.937c0.338-0.653,0.674-1.305,1.011-1.955c1.514-2.935,3.006-5.846,4.476-8.735
	c0.813-1.595,1.618-3.184,2.416-4.765c0.8-1.587,1.594-3.164,2.379-4.733c0.472-0.943,0.941-1.883,1.406-2.82
	c0.311-0.624,0.621-1.246,0.928-1.868c0.616-1.243,1.227-2.48,1.833-3.712c0.302-0.615,0.604-1.23,0.904-1.842
	c0.601-1.225,1.195-2.446,1.785-3.659c0.295-0.607,0.588-1.212,0.88-1.816c0.585-1.207,1.163-2.409,1.736-3.604
	c0.48-1.002,0.957-1.999,1.428-2.992c0.463-0.973,0.922-1.941,1.376-2.905c0.742-1.571,1.473-3.132,2.193-4.678
	c0.806-1.732,1.598-3.448,2.377-5.147c0.517-1.133,1.03-2.258,1.536-3.375c0.393-0.867,0.78-1.729,1.164-2.588
	c0.469-1.045,0.93-2.083,1.387-3.114c0.376-0.85,0.749-1.696,1.116-2.536c0.708-1.618,1.4-3.217,2.077-4.796
	c0.451-1.054,0.895-2.099,1.331-3.136c0.437-1.036,0.865-2.063,1.288-3.082c0.843-2.037,1.657-4.04,2.44-6.004l0.581-1.467
	c0.245-0.622,0.486-1.238,0.725-1.854c0.269-0.693,0.535-1.381,0.796-2.064c0.231-0.605,0.46-1.207,0.685-1.804
	c0.351-0.934,0.695-1.858,1.031-2.772c0.212-0.578,0.419-1.15,0.625-1.72c0.239-0.664,0.474-1.324,0.705-1.977
	c0.196-0.558,0.391-1.115,0.582-1.665c2.11-6.111,3.8-11.705,5.018-16.709c0.348-1.43,0.658-2.811,0.927-4.143
	c0.602-2.977,1.005-5.703,1.197-8.161c14.053-1.211,28.026-2.597,41.919-4.157l0.167,0.545l0.025,0.082l0.218,0.679l0.026,0.079
	l0.24,0.707l0.019,0.057l0.26,0.729l0.02,0.055l0.281,0.757l0.007,0.016l0.348,0.897l0.12,0.3l0.258,0.635l0.132,0.319l0.31,0.73
	l0.082,0.191c0.286,0.662,0.586,1.335,0.903,2.02l0.057,0.125l0.413,0.878l0.108,0.227c0.501,1.049,1.036,2.123,1.602,3.224
	l0.045,0.086l0.548,1.047l0.05,0.096c39.966,75.575,227.35,263.668,291.837,327.308c9.052,8.933,23.969,5.391,28.397-5.965
	l0.203-0.547l0.196-0.586l0.335-1.21c13.887-57.661,44.42-188.417,62.462-295.756c0.497-2.961,0.985-5.904,1.463-8.828
	c0.24-1.461,0.476-2.918,0.71-4.37c0.117-0.725,0.233-1.45,0.348-2.173c1.157-7.231,2.247-14.329,3.261-21.261
	c0.304-2.08,0.603-4.144,0.893-6.193c2.13-15.027,3.881-29.209,5.149-42.208c0.231-2.364,0.446-4.688,0.644-6.971
	c0.099-1.142,0.194-2.273,0.284-3.394c0.227-2.802,0.428-5.538,0.601-8.205c0.104-1.599,0.198-3.174,0.281-4.723
	c0.056-1.032,0.107-2.053,0.154-3.063c0.047-1.009,0.088-2.005,0.126-2.991c0.113-2.956,0.182-5.803,0.208-8.535
	c0.009-0.911,0.013-1.809,0.012-2.694c0-0.884-0.007-1.756-0.018-2.615c-0.033-2.575-0.112-5.03-0.238-7.359
	c-0.04-0.727-0.084-1.441-0.133-2.143c14.11-5.243,28.171-10.624,42.187-16.133c44.512,65.086,268.037,225.932,344.325,279.832
	l0.48,0.339l0.001,0.001l0.012,0.008c10.472,7.398,24.757,1.309,27.102-10.812l0.102-0.582l0.182-1.554
	c4.357-59.97,13.341-196.85,13.4-306.472c0-0.746,0-1.49,0-2.234c-0.002-2.972-0.011-5.925-0.025-8.854
	c-0.008-1.464-0.017-2.923-0.028-4.377c-0.012-1.452-0.024-2.899-0.039-4.34c-0.022-2.161-0.049-4.309-0.079-6.44
	c-0.03-2.133-0.064-4.25-0.104-6.351c-0.025-1.402-0.053-2.796-0.083-4.182c-0.029-1.387-0.062-2.767-0.095-4.139
	c-0.068-2.744-0.142-5.457-0.226-8.139c-0.062-2.012-0.13-4.004-0.201-5.978s-0.149-3.929-0.231-5.863
	c-0.054-1.291-0.111-2.572-0.169-3.844c-0.088-1.908-0.181-3.795-0.278-5.661c-0.033-0.622-0.066-1.242-0.099-1.859
	c-0.068-1.234-0.137-2.46-0.21-3.675c-0.072-1.215-0.146-2.42-0.223-3.615c-0.076-1.194-0.155-2.38-0.236-3.554
	c-0.082-1.174-0.165-2.338-0.251-3.491c-0.086-1.154-0.175-2.297-0.265-3.427c-0.318-3.961-0.665-7.787-1.045-11.469
	c-0.108-1.051-0.219-2.092-0.332-3.119c-0.227-2.055-0.464-4.062-0.711-6.019c-0.124-0.978-0.25-1.944-0.38-2.896
	c-0.129-0.953-0.26-1.892-0.395-2.819c-0.134-0.927-0.271-1.84-0.411-2.74c-0.699-4.499-1.467-8.662-2.309-12.457
	c-0.168-0.759-0.338-1.503-0.513-2.233c-0.22-0.919-0.444-1.81-0.672-2.681c30.344-15.797,60.691-31.82,91.093-47.968
	c2.867-1.52,3.957-5.075,2.431-7.937C2423.275,516.125,2419.72,515.018,2416.858,516.561z"/>
<path style="fill:#28301C;" d="M558.141,729.37l-0.357-1.49c-24.481-97.983-282.78-201.973-375.963-156.449
	c-2.033,0.993-3.991,2.057-5.863,3.195l-0.411,0.266l-0.121,0.086l-0.281,0.204l-0.15,0.119l-0.247,0.2l-0.168,0.147l-0.214,0.191
	l-0.182,0.174l-0.203,0.198l-0.183,0.19l-0.189,0.203l-0.184,0.206l-0.184,0.214l-0.189,0.23l-0.168,0.211l-0.192,0.249
	l-0.164,0.223l-0.189,0.262l-0.16,0.232l-0.187,0.277l-0.156,0.245l-0.185,0.292l-0.129,0.214l-0.01,0.018l-0.2,0.336l-0.097,0.173
	l-0.23,0.41l-0.014,0.026c-0.301,0.554-0.592,1.141-0.877,1.758l-0.027,0.059l-0.238,0.53l-0.064,0.145l-0.254,0.599l-0.03,0.072
	l-0.26,0.646l-0.023,0.058l-0.251,0.656l-0.031,0.081l-0.241,0.661l-0.034,0.097l-0.237,0.683l-0.026,0.078l-0.245,0.743
	l-0.004,0.014l-0.286,0.914l-0.09,0.298l-0.211,0.719l-0.068,0.235l-0.246,0.884l-0.034,0.125l-0.277,1.054l-0.034,0.133
	l-0.231,0.935l-0.058,0.235l-0.224,0.96l-0.031,0.132c-0.177,0.777-0.349,1.573-0.515,2.389l-0.006,0.032l-0.245,1.24l-0.003,0.017
	c-15.726,81.671,17.029,347.858,29.042,439.001l0.077,0.582l0.001,0.003c1.648,12.473,15.331,18.84,25.757,12.919
	c0.802-0.456,1.586-0.981,2.342-1.585c13.486-10.763,31.881-25.548,53.161-42.915c0.824-0.672,1.652-1.348,2.484-2.028
	c13.114-10.713,27.271-22.367,42.012-34.636c0.833-0.693,1.667-1.387,2.504-2.084c1.151-0.959,2.305-1.922,3.463-2.888
	c2.987-2.493,5.996-5.009,9.021-7.546c1.078-0.903,2.158-1.809,3.24-2.718c3.531-2.965,7.083-5.955,10.651-8.968
	c0.868-0.733,1.736-1.467,2.604-2.202c4.494-3.8,9.012-7.634,13.54-11.493c0.6-0.512,1.2-1.023,1.802-1.537
	c0.877-0.749,1.755-1.498,2.634-2.25c1.527-1.304,3.053-2.611,4.582-3.92c0.602-0.515,1.203-1.031,1.805-1.547
	c1.805-1.55,3.611-3.101,5.416-4.656c1.204-1.036,2.408-2.073,3.61-3.112c2.728-2.354,5.453-4.713,8.175-7.075
	c0.558-0.484,1.115-0.969,1.672-1.453c0.641-0.557,1.282-1.115,1.923-1.673c0.802-0.696,1.601-1.393,2.401-2.091
	c3.068-2.674,6.127-5.351,9.175-8.028c1.189-1.044,2.376-2.087,3.561-3.131c1.184-1.043,2.368-2.086,3.548-3.129
	c2.361-2.086,4.713-4.17,7.054-6.251c4.098-3.643,8.163-7.277,12.185-10.897c0.575-0.517,1.148-1.034,1.722-1.55
	c1.418-1.278,2.83-2.555,4.236-3.829c3.142-2.844,6.254-5.676,9.332-8.494c1.114-1.021,2.223-2.038,3.329-3.054
	c0.595-0.547,1.189-1.094,1.782-1.641c1.567-1.444,3.125-2.884,4.672-4.319c2.755-2.555,5.479-5.095,8.166-7.618
	c1.059-0.994,2.113-1.986,3.161-2.975c1.573-1.484,3.131-2.96,4.677-4.43c1.006-0.957,2.007-1.913,3.003-2.864
	c1.04-0.995,2.075-1.988,3.102-2.976l1.501-1.447c1.51-1.456,3.003-2.905,4.481-4.344c0.967-0.941,1.925-1.878,2.877-2.812
	c1.445-1.416,2.874-2.825,4.285-4.223c1.883-1.866,3.736-3.715,5.557-5.545c0.911-0.916,1.813-1.827,2.707-2.733
	c2.684-2.719,5.292-5.398,7.822-8.031c0.824-0.858,1.64-1.709,2.446-2.557l1.288-1.357l1.218-1.289
	c0.807-0.857,1.605-1.708,2.393-2.554c0.789-0.847,1.568-1.687,2.336-2.522l1.146-1.248c0.76-0.83,1.51-1.652,2.25-2.47l1.102-1.222
	c1.095-1.217,2.166-2.422,3.214-3.611c1.747-1.984,3.43-3.928,5.043-5.832c0.645-0.761,1.28-1.517,1.903-2.265
	c0.624-0.747,1.235-1.49,1.836-2.224c0.6-0.735,1.19-1.462,1.767-2.183c2.888-3.603,5.485-7.031,7.764-10.263
	c0.456-0.646,0.899-1.285,1.329-1.916c0.43-0.631,0.848-1.254,1.252-1.868c3.099-4.712,5.423-8.946,6.88-12.637
	C558.176,735.376,558.736,732.006,558.141,729.37z"/>
<path style="fill:#D2DB76;" d="M558.141,729.37l-0.357-1.49c-24.481-97.983-282.78-201.973-375.963-156.449
	c-2.033,0.993-3.991,2.057-5.863,3.195l-0.411,0.266l-0.121,0.086l-0.281,0.204l-0.15,0.119l-0.247,0.2l-0.168,0.147l-0.214,0.191
	l-0.182,0.174l-0.203,0.198l-0.183,0.19l-0.189,0.203l-0.184,0.206l-0.184,0.214l-0.189,0.23l-0.168,0.211l-0.192,0.249
	l-0.164,0.223l-0.189,0.262l-0.16,0.232l-0.187,0.277l-0.156,0.245l-0.185,0.292l-0.129,0.214l-0.01,0.018l-0.2,0.336l-0.097,0.173
	l-0.23,0.41l-0.014,0.026c-0.301,0.554-0.592,1.141-0.877,1.758l-0.027,0.059l-0.238,0.53l-0.064,0.145l-0.254,0.599l-0.03,0.072
	l-0.26,0.646l-0.023,0.058l-0.251,0.656l-0.031,0.081l-0.241,0.661l-0.034,0.097l-0.237,0.683l-0.026,0.078l-0.245,0.743
	l-0.004,0.014c-3.433,10.648-5.407,26.971-6.252,47.263c12.803-17.13,29.77-30.305,50.177-36.251
	c0.677-0.191,1.354-0.374,2.032-0.555l3.996-10.51c0.43-1.141,1.692-1.703,2.839-1.279c1.142,0.43,1.709,1.703,1.279,2.839
	l-2.913,7.659c57.06-13.113,116.755,7.241,162.426,46.842c11.971,10.456,26.37,16.615,41.744,21.441l4.09-10.766
	c0.43-1.129,1.698-1.703,2.844-1.273c1.135,0.43,1.703,1.703,1.273,2.844l-3.985,10.483c25.246,7.487,52.717,12.165,76.185,26.729
	c34.588,19.083,18.655,66.794-11.123,81.818c-33.589,20.252-78.428,13.945-104.781,45.589c-14.953,16.784-2.858,36.66-4.91,56.583
	l4.46-11.726c0.43-1.13,1.697-1.703,2.844-1.273c1.136,0.43,1.704,1.703,1.273,2.844l-5.201,13.665
	c-0.333,0.883-1.17,1.422-2.059,1.422l-0.78-0.143l-1.11-0.931c-7.506,39.953-52.538,48.423-87.084,59.49
	c-11.669,3.739-22.473,9.52-26.006,18.245c-10.703,23.764-25,52.958-46.437,68.105l-3.354,8.822
	c-0.339,0.877-1.17,1.416-2.059,1.416l-0.786-0.143c-1.136-0.436-1.703-1.709-1.273-2.844l1.294-3.401
	c-6.71,3.638-14.066,5.903-22.16,6.297l0.077,0.582l0.001,0.003c1.648,12.473,15.331,18.84,25.757,12.919
	c0.802-0.456,1.586-0.981,2.342-1.585c13.486-10.763,31.881-25.548,53.161-42.915c0.824-0.672,1.652-1.348,2.484-2.028
	c13.114-10.713,27.271-22.367,42.012-34.636c0.833-0.693,1.667-1.387,2.504-2.084c1.151-0.959,2.305-1.922,3.463-2.888
	c2.987-2.493,5.996-5.009,9.021-7.546c1.078-0.903,2.158-1.809,3.24-2.718c3.531-2.965,7.083-5.955,10.651-8.968
	c0.868-0.733,1.736-1.467,2.604-2.202c4.494-3.8,9.012-7.634,13.54-11.493c0.6-0.512,1.2-1.023,1.802-1.537
	c0.877-0.749,1.755-1.498,2.634-2.25c1.527-1.304,3.053-2.611,4.582-3.92c0.602-0.515,1.203-1.031,1.805-1.547
	c1.805-1.55,3.611-3.101,5.416-4.656c1.204-1.036,2.408-2.073,3.61-3.112c2.728-2.354,5.453-4.713,8.175-7.075
	c0.558-0.484,1.115-0.969,1.672-1.453c0.641-0.557,1.282-1.115,1.923-1.673c0.802-0.696,1.601-1.393,2.401-2.091
	c3.068-2.674,6.127-5.351,9.175-8.028c1.189-1.044,2.376-2.087,3.561-3.131c1.184-1.043,2.368-2.086,3.548-3.129
	c2.361-2.086,4.713-4.17,7.054-6.251c4.098-3.643,8.163-7.277,12.185-10.897c0.575-0.517,1.148-1.034,1.722-1.55
	c1.418-1.278,2.83-2.555,4.236-3.829c3.142-2.844,6.254-5.676,9.332-8.494c1.114-1.021,2.223-2.038,3.329-3.054
	c0.595-0.547,1.189-1.094,1.782-1.641c1.567-1.444,3.125-2.884,4.672-4.319c2.755-2.555,5.479-5.095,8.166-7.618
	c1.059-0.994,2.113-1.986,3.161-2.975c1.573-1.484,3.131-2.96,4.677-4.43c1.006-0.957,2.007-1.913,3.003-2.864
	c1.04-0.995,2.075-1.988,3.102-2.976l1.501-1.447c1.51-1.456,3.003-2.905,4.481-4.344c0.967-0.941,1.925-1.878,2.877-2.812
	c1.445-1.416,2.874-2.825,4.285-4.223c1.883-1.866,3.736-3.715,5.557-5.545c0.911-0.916,1.813-1.827,2.707-2.733
	c2.684-2.719,5.292-5.398,7.822-8.031c0.824-0.858,1.64-1.709,2.446-2.557l1.288-1.357l1.218-1.289
	c0.807-0.857,1.605-1.708,2.393-2.554c0.789-0.847,1.568-1.687,2.336-2.522l1.146-1.248c0.76-0.83,1.51-1.652,2.25-2.47l1.102-1.222
	c1.095-1.217,2.166-2.422,3.214-3.611c1.747-1.984,3.43-3.928,5.043-5.832c0.645-0.761,1.28-1.517,1.903-2.265
	c0.624-0.747,1.235-1.49,1.836-2.224c0.6-0.735,1.19-1.462,1.767-2.183c2.888-3.603,5.485-7.031,7.764-10.263
	c0.456-0.646,0.899-1.285,1.329-1.916c0.43-0.631,0.848-1.254,1.252-1.868c3.099-4.712,5.423-8.946,6.88-12.637
	C558.176,735.376,558.736,732.006,558.141,729.37z"/>
<path style="fill:#D2DB76;" d="M2340.856,700.264c-0.008-1.464-0.017-2.923-0.028-4.377c-0.012-1.452-0.024-2.899-0.039-4.34
	c-0.022-2.161-0.049-4.309-0.079-6.44c-0.03-2.133-0.064-4.25-0.104-6.351c-0.025-1.402-0.053-2.796-0.083-4.182
	c-0.029-1.387-0.062-2.767-0.095-4.139c-0.068-2.744-0.142-5.457-0.226-8.139c-0.062-2.012-0.13-4.004-0.201-5.978
	s-0.149-3.929-0.231-5.863c-0.054-1.291-0.111-2.572-0.169-3.844c-0.088-1.908-0.181-3.795-0.278-5.661
	c-0.033-0.622-0.066-1.242-0.099-1.859c-0.068-1.234-0.137-2.46-0.21-3.675c-0.072-1.215-0.146-2.42-0.223-3.615
	c-0.076-1.194-0.155-2.38-0.236-3.554c-0.082-1.174-0.165-2.338-0.251-3.491c-0.086-1.154-0.175-2.297-0.265-3.427
	c-0.318-3.961-0.665-7.787-1.045-11.469c-0.108-1.051-0.219-2.092-0.332-3.119c-0.227-2.055-0.464-4.062-0.711-6.019
	c-0.124-0.978-0.25-1.944-0.38-2.896c-0.129-0.953-0.26-1.892-0.395-2.819c-0.134-0.927-0.271-1.84-0.411-2.74
	c-0.699-4.499-1.467-8.662-2.309-12.457c-0.168-0.759-0.338-1.503-0.513-2.233c-0.22-0.919-0.444-1.81-0.672-2.681
	c-1.153-4.389-2.427-8.159-3.831-11.242c-1.963-4.314-4.18-7.286-6.675-8.728c-89.241-51.59-352.568,74.578-373.06,175.601
	l-0.084,0.483l-0.016,0.133l-0.042,0.357l-0.015,0.206l-0.019,0.295l-0.007,0.23l-0.005,0.292l0.004,0.246l0.008,0.28l0.016,0.27
	l0.019,0.27l0.028,0.288l0.031,0.267l0.039,0.291l0.044,0.288l0.048,0.284l0.056,0.294l0.062,0.302l0.065,0.287l0.075,0.316
	l0.068,0.258l0.099,0.373l0.057,0.195l0.126,0.424l0.066,0.207l0.139,0.424l0.036,0.103c0.268,0.782,0.585,1.588,0.949,2.422
	l0.032,0.075l0.267,0.594l0.039,0.083l0.292,0.617l0.033,0.069l0.3,0.607l0.053,0.107l0.315,0.612l0.048,0.09l0.351,0.657
	l0.021,0.04l0.487,0.875l0.116,0.203l0.41,0.707l0.127,0.214l0.443,0.738l0.107,0.175c0.699,1.137,1.46,2.309,2.284,3.514
	c44.512,65.086,268.037,225.932,344.325,279.832l0.48,0.339l0.001,0.001l0.012,0.008c10.472,7.398,24.757,1.309,27.102-10.812
	l0.102-0.582l0.182-1.554c4.357-59.97,13.341-196.85,13.4-306.472c0-0.746,0-1.49,0-2.234
	C2340.88,706.145,2340.871,703.193,2340.856,700.264z"/>
<path style="fill:#EE7691;" d="M2320.765,554.926c-89.241-51.59-352.568,74.578-373.06,175.601l-0.084,0.483l-0.016,0.133
	l-0.042,0.357l-0.015,0.206l-0.019,0.295l-0.007,0.23l-0.005,0.292l0.004,0.246l0.008,0.28l0.016,0.27l0.019,0.27l0.028,0.288
	l0.031,0.267l0.039,0.291l0.044,0.288l0.048,0.284l0.056,0.294l0.062,0.302l0.065,0.287l0.075,0.316l0.068,0.258l0.099,0.373
	l0.057,0.195l0.126,0.424l0.066,0.207l0.139,0.424l0.036,0.103c0.268,0.782,0.585,1.588,0.949,2.422l0.032,0.075l0.267,0.594
	l0.039,0.083l0.292,0.617l0.033,0.069l0.3,0.607l0.053,0.107l0.315,0.612l0.048,0.09l0.351,0.657l0.021,0.04
	c5.365,9.847,16.178,22.637,30.857,37.387c-1.405-7.599-2.057-15.247-1.875-22.814l-1.329,0.482l-0.711,0.115
	c-0.918,0-1.772-0.58-2.088-1.492c-0.39-1.152,0.23-2.402,1.376-2.798c1.031-0.35,2.024-0.744,2.982-1.177
	c0.516-7.085,1.79-14.075,3.901-20.858c-0.735-1.247-1.307-2.469-1.717-3.603c-1.256-3.475-0.407-7.931,2.024-10.597
	c1.773-1.951,4.237-2.743,6.758-2.269c28.613-52.621,85.069-83.696,146.326-90.481c42.919-4.596,74.73-43.845,119.236-56.124
	c20.276-6.731,36.67,3.074,45.998,18.569c2.47-2.781,4.536-6.027,6.005-9.573c0.694-1.669,1.594-4.169,1.416-6.52
	c-0.092-1.21,0.82-2.265,2.036-2.357c1.25-0.143,2.271,0.826,2.357,2.036c0.247,3.28-0.877,6.439-1.738,8.527
	c-1.888,4.554-4.583,8.629-7.83,12.002c6.173,12.509,8.074,27.79,4.284,41.023c-3.653,17.695-13.065,33.319-21.633,49.015
	c0.539-0.178,1.107-0.294,1.696-0.335c2.816-0.183,5.333,1.342,6.365,3.917c1.009,2.517,1.354,5.459,0.98,8.292
	c-0.281,2.162-0.911,4.238-1.766,6.245c3.108,1.382,6.807,1.87,10.402,1.113c7.226-1.508,13.975-7.512,17.197-15.288
	c0.878-2.122,1.239-3.756,1.13-5.155c-0.092-1.215,0.814-2.277,2.024-2.368c1.411-0.115,2.271,0.82,2.369,2.024
	c0.212,2.787-0.729,5.436-1.451,7.185c-3.825,9.221-11.629,16.085-20.363,17.914c-4.593,0.964-9.283,0.298-13.269-1.537
	c-1.365,2.374-2.959,4.645-4.553,6.847c-2.34,3.234-5.138,5.712-8.321,7.363c-2.842,1.475-5.476,2.143-7.915,2.232
	c-1.176,6.514-1.479,13.284-0.544,20.426c2.257,23.214,26.724,27.302,39.667,43.751c4.359,5.539,7.28,11.263,9.05,17.11
	c4.19-1.732,7.902-5.513,9.842-10.195c0.614-1.479,0.866-2.603,0.797-3.555c-0.092-1.21,0.82-2.266,2.036-2.357
	c1.204-0.115,2.265,0.826,2.357,2.036c0.16,2.179-0.562,4.22-1.118,5.562c-2.505,6.047-7.276,10.752-12.815,12.815
	c5.759,27.727-12.308,57.876-24.584,84.215c-5.176,11.107-8.264,22.964-4.255,31.481c1.11,2.615,2.238,5.305,3.364,8.056
	c2.937-1.892,5.65-4.657,8.243-8.399c-1.835-1.445-3.297-3.303-4.163-5.407c-1.176-2.867-0.155-6.044,2.483-7.73
	c2.523-1.611,5.574-1.233,7.587,0.94c0.534,0.574,0.947,1.233,1.221,1.956c1.136,3.062,0.155,6.256-0.969,8.573l1.393,0.315
	c4.507,0.694,9.754-1.141,14.055-4.903c0.917-0.803,2.305-0.711,3.108,0.206c0.803,0.918,0.705,2.305-0.207,3.108
	c-5.264,4.605-11.818,6.824-17.627,5.947c-1.044-0.166-2.065-0.442-3.039-0.814c-3.195,4.679-6.613,8.082-10.412,10.354
	c12.544,31.553,23.322,69.989,1.668,95.825l0.48,0.339l0.001,0.001c10.637,7.511,25.221,1.117,27.216-11.386l0.182-1.554
	c4.357-59.97,13.341-196.85,13.4-306.472c0-0.746,0-1.49,0-2.234c-0.002-2.972-0.011-5.925-0.025-8.854
	c-0.008-1.464-0.017-2.923-0.028-4.377c-0.012-1.452-0.024-2.899-0.039-4.34c-0.022-2.161-0.049-4.309-0.079-6.44
	c-0.03-2.132-0.064-4.249-0.104-6.351c-0.025-1.402-0.053-2.796-0.083-4.182c-0.029-1.387-0.062-2.767-0.095-4.139
	c-0.068-2.744-0.142-5.457-0.226-8.139c-0.062-2.012-0.13-4.004-0.201-5.978s-0.149-3.929-0.231-5.863
	c-0.054-1.291-0.111-2.572-0.169-3.844c-0.088-1.908-0.181-3.795-0.278-5.661c-0.033-0.622-0.066-1.242-0.099-1.859
	c-0.068-1.234-0.137-2.46-0.21-3.675c-0.072-1.215-0.146-2.42-0.223-3.615c-0.076-1.194-0.155-2.38-0.236-3.554
	c-0.082-1.174-0.165-2.338-0.251-3.491c-0.086-1.154-0.175-2.297-0.265-3.427c-0.318-3.961-0.665-7.787-1.045-11.469
	c-0.108-1.051-0.219-2.092-0.332-3.119c-0.227-2.055-0.464-4.062-0.711-6.019c-0.124-0.978-0.25-1.944-0.38-2.896
	c-0.129-0.953-0.26-1.892-0.395-2.819c-0.134-0.927-0.271-1.84-0.411-2.74c-0.699-4.499-1.467-8.662-2.309-12.457
	c-0.168-0.759-0.338-1.503-0.513-2.233c-0.22-0.919-0.444-1.81-0.672-2.681c-1.153-4.389-2.427-8.159-3.831-11.242
	C2325.476,559.341,2323.259,556.368,2320.765,554.926z"/>
<path style="fill:#E84922;" d="M1466.288,859.592l-0.336-0.581c-55.187-87.063-347.002-97.24-411.962-17.204l-0.297,0.388
	l-0.087,0.126l-0.193,0.282l-0.109,0.175l-0.154,0.254l-0.112,0.199l-0.143,0.263l-0.101,0.202l-0.131,0.269l-0.109,0.24
	l-0.109,0.252l-0.106,0.264l-0.099,0.254l-0.104,0.289l-0.084,0.244l-0.099,0.305l-0.076,0.252l-0.097,0.339l-0.059,0.22
	l-0.096,0.375l-0.051,0.22l-0.089,0.399l-0.03,0.147l-0.011,0.056l-0.085,0.437l-0.028,0.156c-0.175,0.999-0.303,2.072-0.381,3.216
	l-0.003,0.047l-0.04,0.665l-0.004,0.082l-0.027,0.704l-0.002,0.047l-0.016,0.718l-0.001,0.069l-0.005,0.736v0.05l0.012,1.01
	l0.008,0.283l0.025,0.796l0.009,0.214l0.048,0.977l0.002,0.043l0.032,0.54c4.759,73.053,132.982,328.301,176.207,412.529
	c5.701,11.109,20.532,12.56,28.41,3.708l0.793-0.956l0.724-1.009l0.342-0.53c1.854-2.998,3.846-6.223,5.962-9.656l0.568-0.923
	c0.802-1.301,1.621-2.632,2.457-3.99l0.601-0.977c0.581-0.947,1.171-1.907,1.768-2.879l0.624-1.016
	c1.143-1.863,2.312-3.772,3.509-5.725l0.873-1.425l0.628-1.028l0.89-1.455c1.518-2.484,3.074-5.035,4.667-7.647l0.718-1.178
	c2.521-4.14,5.13-8.433,7.813-12.863l0.775-1.28c1.104-1.822,2.219-3.667,3.346-5.533l0.649-1.074
	c1.081-1.789,2.172-3.599,3.274-5.427l0.821-1.364c2.048-3.4,4.128-6.863,6.24-10.383c0.736-1.229,1.475-2.464,2.219-3.706
	c1.148-1.918,2.304-3.851,3.467-5.8c1.751-2.932,3.519-5.9,5.302-8.898c1.553-2.611,3.117-5.246,4.691-7.904l0.922-1.554
	c0.446-0.754,0.893-1.509,1.34-2.266l0.929-1.57c1.584-2.682,3.178-5.383,4.779-8.103c0.315-0.536,0.631-1.072,0.947-1.608
	c1.602-2.724,3.211-5.466,4.827-8.223c0.435-0.743,0.87-1.486,1.305-2.23c1.503-2.567,3.01-5.148,4.521-7.741
	c0.657-1.126,1.314-2.254,1.97-3.383c0.966-1.66,1.932-3.323,2.9-4.992c0.661-1.139,1.322-2.28,1.984-3.423
	c0.454-0.784,0.909-1.569,1.363-2.355c0.331-0.573,0.662-1.147,0.993-1.721c0.454-0.784,0.908-1.571,1.362-2.358l0.816-1.415
	c1.299-2.255,2.599-4.514,3.901-6.78c0.46-0.802,0.92-1.604,1.38-2.407l0.602-1.051c0.856-1.493,1.71-2.988,2.565-4.484
	c0.449-0.786,0.898-1.573,1.347-2.359c0.338-0.593,0.675-1.184,1.014-1.778c0.447-0.785,0.895-1.57,1.342-2.356
	c0.669-1.177,1.339-2.356,2.009-3.536c0.567-1,1.135-2,1.702-3l0.835-1.475c1.615-2.855,3.228-5.713,4.834-8.571
	c0.341-0.607,0.683-1.214,1.023-1.82c0.437-0.777,0.873-1.554,1.308-2.331c0.73-1.302,1.458-2.604,2.186-3.905
	c1.205-2.156,2.407-4.311,3.605-6.466c1.496-2.691,2.987-5.379,4.469-8.063c1.182-2.14,2.36-4.277,3.531-6.411
	c0.548-0.998,1.096-1.996,1.642-2.992c0.547-0.999,1.092-1.996,1.637-2.993c0.409-0.749,0.816-1.497,1.224-2.244
	c0.714-1.309,1.425-2.617,2.133-3.922c0.702-1.294,1.403-2.585,2.1-3.875c0.479-0.884,0.955-1.768,1.431-2.65
	c1.423-2.64,2.836-5.271,4.237-7.891c0.698-1.303,1.392-2.605,2.083-3.902c0.38-0.714,0.758-1.427,1.137-2.14
	c0.69-1.3,1.378-2.598,2.061-3.892c0.307-0.582,0.614-1.164,0.921-1.746c0.581-1.101,1.159-2.2,1.735-3.297
	c0.513-0.979,1.024-1.955,1.534-2.93c1.215-2.324,2.419-4.638,3.61-6.937c0.338-0.653,0.674-1.305,1.011-1.955
	c1.514-2.935,3.006-5.846,4.476-8.735c0.813-1.595,1.618-3.184,2.416-4.765c0.8-1.587,1.594-3.164,2.379-4.733
	c0.472-0.943,0.941-1.883,1.406-2.82c0.311-0.624,0.621-1.246,0.928-1.868c0.616-1.243,1.227-2.48,1.833-3.712
	c0.302-0.615,0.604-1.23,0.904-1.842c0.601-1.225,1.195-2.446,1.785-3.659c0.295-0.607,0.588-1.212,0.88-1.816
	c0.585-1.207,1.163-2.409,1.736-3.604c0.48-1.002,0.957-1.999,1.428-2.992c0.463-0.973,0.922-1.941,1.376-2.905
	c0.742-1.571,1.473-3.132,2.193-4.678c0.806-1.732,1.598-3.448,2.377-5.147c0.517-1.133,1.03-2.258,1.536-3.375
	c0.393-0.867,0.78-1.729,1.164-2.588c0.469-1.045,0.93-2.083,1.387-3.114c0.376-0.85,0.749-1.696,1.116-2.536
	c0.708-1.618,1.4-3.217,2.077-4.796c0.451-1.054,0.895-2.099,1.331-3.136c0.437-1.036,0.865-2.063,1.288-3.082
	c0.843-2.037,1.657-4.04,2.44-6.004l0.581-1.467c0.245-0.622,0.486-1.238,0.725-1.854c0.269-0.693,0.535-1.381,0.796-2.064
	c0.231-0.605,0.46-1.207,0.685-1.804c0.351-0.934,0.695-1.858,1.031-2.772c0.212-0.578,0.419-1.15,0.625-1.72
	c0.239-0.664,0.474-1.324,0.705-1.977c0.196-0.558,0.391-1.115,0.582-1.665c2.11-6.111,3.8-11.705,5.018-16.709
	c0.348-1.43,0.658-2.811,0.927-4.143c0.602-2.977,1.005-5.703,1.197-8.161C1468.135,866.012,1467.679,862.201,1466.288,859.592z"/>
<path style="fill:#121F25;" d="M1509.607,866.487l-0.174-0.608l-0.035-0.129l-0.155-0.587l-0.039-0.155l-0.139-0.567l-0.008-0.037
	c-0.193-0.83-0.346-1.631-0.46-2.399l-0.038-0.253l-0.045-0.357l-0.034-0.289l-0.035-0.345l-0.026-0.288l-0.023-0.335l-0.016-0.272
	l-0.013-0.336l-0.007-0.27l-0.002-0.302l0.004-0.288l0.009-0.29l0.015-0.288l0.017-0.257l0.028-0.299l0.027-0.254l0.038-0.282
	l0.035-0.237l0.055-0.299l0.042-0.213l0.071-0.298l0.047-0.195l0.099-0.342l0.039-0.13v-0.002c-14.2,1.629-28.4,3.063-42.595,4.312
	c1.391,2.609,1.847,6.42,1.469,11.287c14.053-1.211,28.026-2.597,41.919-4.157l-0.032-0.108L1509.607,866.487z"/>
<path style="fill:#121F25;" d="M2424.794,518.993c-1.52-2.867-5.074-3.974-7.936-2.432c-29.845,15.851-59.635,31.581-89.419,47.093
	c1.404,3.084,2.677,6.854,3.831,11.242c30.344-15.797,60.691-31.82,91.093-47.968C2425.23,525.409,2426.32,521.854,2424.794,518.993
	z"/>
<path style="fill:#121F25;" d="M1050.851,854.698l0.005-0.736l0.001-0.069l0.016-0.718l0.002-0.047l0.027-0.704l0.004-0.082
	l0.04-0.665l0.003-0.047c0.079-1.144,0.206-2.217,0.381-3.216l0.028-0.156l0.085-0.437l0.011-0.056
	c-15.815-2.134-31.569-4.435-47.256-6.896l0.15,0.421l0.372,1.463l0.136,1.065c0.06,0.733,0.061,1.515,0.005,2.342
	c-0.044,0.621-0.118,1.267-0.225,1.939c-0.177,1.12-0.444,2.31-0.796,3.567l-0.024,0.086c15.794,2.466,31.518,4.752,47.171,6.858
	c-0.088-1.35-0.132-2.638-0.135-3.862V854.698z"/>
<path style="fill:#121F25;" d="M1951.281,744.126l-0.351-0.657l-0.048-0.09l-0.315-0.612l-0.053-0.107l-0.3-0.607l-0.033-0.069
	l-0.292-0.617l-0.039-0.083l-0.267-0.594l-0.032-0.075l-0.145-0.336c-12.585,4.937-25.204,9.769-37.862,14.49
	c0.416,1.971,0.762,4.133,1.039,6.477c0.08,0.675,0.155,1.364,0.224,2.069c0.104,1.056,0.195,2.146,0.275,3.267l0.009,0.144
	c14.11-5.243,28.171-10.624,42.187-16.133c-1.545-2.26-2.875-4.404-3.975-6.425L1951.281,744.126z"/>
<path style="fill:#28301C;" d="M1913.462,776.225c-0.033-2.575-0.112-5.03-0.238-7.359c-0.043-0.777-0.09-1.538-0.143-2.287
	c-0.08-1.122-0.171-2.211-0.275-3.267c-0.069-0.705-0.143-1.394-0.224-2.069c-0.278-2.344-0.624-4.506-1.039-6.477
	c-1.258-5.974-3.16-10.192-5.796-12.359c-79.634-65.453-360.01,16.082-396.703,112.411l-0.161,0.461v0.002l-0.039,0.13l-0.099,0.342
	l-0.047,0.195l-0.071,0.298l-0.042,0.213l-0.055,0.299l-0.035,0.237l-0.038,0.282l-0.027,0.254l-0.028,0.299l-0.017,0.257
	l-0.015,0.288l-0.009,0.29l-0.004,0.288l0.002,0.302l0.007,0.27l0.013,0.336l0.016,0.272l0.023,0.335l0.026,0.288l0.035,0.345
	l0.034,0.289l0.045,0.357l0.038,0.253c0.114,0.768,0.267,1.567,0.46,2.399l0.008,0.037l0.139,0.567l0.039,0.155l0.155,0.587
	l0.035,0.129l0.174,0.608l0.036,0.127l0.199,0.653l0.025,0.082l0.218,0.679l0.026,0.079l0.24,0.707l0.019,0.057l0.26,0.729
	l0.02,0.055l0.281,0.757l0.007,0.016l0.348,0.897l0.12,0.3l0.258,0.635l0.132,0.319l0.31,0.73l0.082,0.191
	c0.286,0.662,0.586,1.335,0.903,2.02l0.057,0.125l0.413,0.878l0.108,0.227c0.501,1.049,1.036,2.123,1.602,3.224l0.045,0.086
	l0.548,1.047l0.05,0.096c39.966,75.575,227.35,263.668,291.837,327.308c9.052,8.933,23.969,5.391,28.397-5.965l0.203-0.547
	l0.196-0.586l0.335-1.21c13.887-57.661,44.42-188.417,62.462-295.756c0.497-2.961,0.985-5.904,1.463-8.828
	c0.24-1.461,0.476-2.918,0.71-4.37c0.117-0.725,0.233-1.45,0.348-2.173c1.157-7.231,2.247-14.329,3.261-21.261
	c0.304-2.08,0.603-4.144,0.893-6.193c2.13-15.027,3.881-29.209,5.149-42.208c0.231-2.364,0.446-4.688,0.644-6.971
	c0.099-1.142,0.194-2.273,0.284-3.394c0.227-2.802,0.428-5.538,0.601-8.205c0.104-1.599,0.198-3.174,0.281-4.723
	c0.056-1.032,0.107-2.053,0.154-3.063c0.047-1.009,0.088-2.005,0.126-2.991c0.113-2.956,0.182-5.803,0.208-8.535
	c0.009-0.911,0.013-1.809,0.012-2.694C1913.48,777.956,1913.473,777.084,1913.462,776.225z"/>
<path style="fill:#D2DB76;" d="M1913.081,766.58c-0.08-1.122-0.171-2.211-0.275-3.267c-0.069-0.705-0.143-1.394-0.224-2.069
	c-0.278-2.344-0.624-4.506-1.039-6.477c-1.258-5.974-3.16-10.192-5.796-12.359c-79.634-65.453-360.01,16.082-396.703,112.411
	l-0.161,0.461v0.002l-0.039,0.13l-0.099,0.342l-0.047,0.195l-0.071,0.298l-0.042,0.213l-0.055,0.299l-0.035,0.237l-0.038,0.282
	l-0.027,0.254l-0.028,0.299l-0.017,0.257l-0.015,0.288l-0.009,0.29l-0.004,0.288l0.002,0.302l0.007,0.27l0.013,0.336l0.016,0.272
	l0.023,0.335l0.026,0.288l0.035,0.345l0.034,0.289l0.045,0.357l0.038,0.253c0.114,0.768,0.267,1.567,0.46,2.399l0.008,0.037
	l0.139,0.567l0.039,0.155l0.155,0.587l0.035,0.129l0.174,0.608l0.036,0.127l0.199,0.653l0.025,0.082l0.218,0.679l0.026,0.079
	l0.24,0.707l0.019,0.057l0.26,0.729l0.02,0.055l0.281,0.757l0.007,0.016c3.955,10.424,12.284,24.228,23.776,40.353
	c-0.406-21.383,4.902-42.198,17.363-59.419c36.527-49.485,98.64-71.978,161.56-68.608c43.094,2.464,80.88-31.072,126.792-35.928
	c39.019-6.164,55.724,41.282,41.436,71.421c-14.087,36.604-53.357,59.146-54.74,100.304c-1.316,19.643,15.204,28.423,26.454,41.714
	c0.646-2.595,2.699-4.783,6.159-4.783c8.516,0,8.501,13.212,0,13.212l-0.341-0.009c19.623,36.495-11.08,71.161-31.739,101.362
	c-6.918,10.113-11.899,21.309-9.333,30.366c8.514,35.145,17.983,82.788-11.002,107.674l0.417,0.412
	c9.193,9.072,24.454,5.282,28.612-6.501l0.196-0.586l0.335-1.21c13.887-57.661,44.42-188.417,62.462-295.756
	c0.497-2.961,0.985-5.904,1.463-8.828c0.24-1.461,0.476-2.918,0.71-4.37c0.117-0.725,0.233-1.45,0.348-2.173
	c1.157-7.231,2.247-14.329,3.261-21.261c0.304-2.08,0.603-4.144,0.893-6.193c2.13-15.027,3.881-29.209,5.149-42.208
	c0.231-2.364,0.446-4.688,0.644-6.971c0.099-1.142,0.194-2.273,0.284-3.394c0.227-2.802,0.428-5.538,0.601-8.205
	c0.104-1.599,0.198-3.174,0.281-4.723c0.056-1.032,0.107-2.053,0.154-3.063c0.047-1.009,0.088-2.005,0.126-2.991
	c0.113-2.956,0.182-5.803,0.208-8.535c0.009-0.911,0.013-1.809,0.012-2.694c0-0.884-0.007-1.756-0.018-2.615
	c-0.033-2.575-0.112-5.03-0.238-7.359C1913.181,768.09,1913.134,767.328,1913.081,766.58z"/>
<path style="fill:#121F25;" d="M600.947,743.667l0.156-0.786l0.016-0.078l0.073-0.358c-14.607-4.777-29.079-9.635-43.407-14.565
	l0.357,1.49c0.595,2.636,0.035,6.006-1.55,10.02c14.373,4.907,28.733,9.69,43.074,14.346c0.289-3.719,0.713-7.085,1.282-10.068
	V743.667z"/>
<path style="fill:#28301C;" d="M1466.288,859.592l-0.336-0.581c-55.187-87.063-347.002-97.24-411.962-17.204l-0.297,0.388
	l-0.087,0.126l-0.193,0.282l-0.109,0.175l-0.154,0.254l-0.112,0.199l-0.143,0.263l-0.101,0.202l-0.131,0.269l-0.109,0.24
	l-0.109,0.252l-0.106,0.264l-0.099,0.254l-0.104,0.289l-0.084,0.244l-0.099,0.305l-0.076,0.252l-0.097,0.339l-0.059,0.22
	l-0.096,0.375l-0.051,0.22l-0.089,0.399l-0.03,0.147l-0.011,0.056l-0.085,0.437l-0.028,0.156c-0.175,0.999-0.303,2.072-0.381,3.216
	l-0.003,0.047l-0.04,0.665l-0.004,0.082l-0.027,0.704l-0.002,0.047l-0.016,0.718l-0.001,0.069l-0.005,0.736v0.05
	c0.023,11.228,3.707,27.884,10.034,48.241c6.296-20.438,17.844-38.551,35.063-51.015c50.163-35.591,116.194-37.544,174.908-14.68
	c40.166,15.81,86.54-4.236,131.669,5.499c38.992,6.339,40.032,56.63,17.039,80.793c-24.821,30.369-69.169,39.508-83.346,78.172
	c-8.754,21.618,11.035,36.576,14.887,57.15c7.702,41.147-32.532,64.591-61.729,86.926c-9.732,7.445-17.963,16.522-18.356,25.927
	c-2.896,36.045-8.791,84.261-44.103,98.842l0.267,0.522c5.7,11.106,20.54,12.57,28.417,3.723l0.793-0.956l0.724-1.009l0.342-0.53
	c1.854-2.998,3.846-6.223,5.962-9.656l0.568-0.923c0.802-1.301,1.621-2.632,2.457-3.99l0.601-0.977
	c0.581-0.947,1.171-1.907,1.768-2.879l0.624-1.016c1.143-1.863,2.312-3.772,3.509-5.725l0.873-1.425l0.628-1.028l0.89-1.455
	c1.518-2.484,3.074-5.035,4.667-7.647l0.718-1.178c2.521-4.14,5.13-8.433,7.813-12.863l0.775-1.28
	c1.104-1.822,2.219-3.667,3.346-5.533l0.649-1.074c1.081-1.789,2.172-3.599,3.274-5.427l0.821-1.364
	c2.048-3.4,4.128-6.863,6.24-10.383c0.736-1.229,1.475-2.464,2.219-3.706c1.148-1.918,2.304-3.851,3.467-5.8
	c1.751-2.932,3.519-5.9,5.302-8.898c1.553-2.611,3.117-5.246,4.691-7.904l0.922-1.554c0.446-0.754,0.893-1.509,1.34-2.266
	l0.929-1.57c1.584-2.682,3.178-5.383,4.779-8.103c0.315-0.536,0.631-1.072,0.947-1.608c1.602-2.724,3.211-5.466,4.827-8.223
	c0.435-0.743,0.87-1.486,1.305-2.23c1.503-2.567,3.01-5.148,4.521-7.741c0.657-1.126,1.314-2.254,1.97-3.383
	c0.966-1.66,1.932-3.323,2.9-4.992c0.661-1.139,1.322-2.28,1.984-3.423c0.454-0.784,0.909-1.569,1.363-2.355
	c0.331-0.573,0.662-1.147,0.993-1.721c0.454-0.784,0.908-1.571,1.362-2.358l0.816-1.415c1.299-2.255,2.599-4.514,3.901-6.78
	c0.46-0.802,0.92-1.604,1.38-2.407l0.602-1.051c0.856-1.493,1.71-2.988,2.565-4.484c0.449-0.786,0.898-1.573,1.347-2.359
	c0.338-0.593,0.675-1.184,1.014-1.778c0.447-0.785,0.895-1.57,1.342-2.356c0.669-1.177,1.339-2.356,2.009-3.536
	c0.567-1,1.135-2,1.702-3l0.835-1.475c1.615-2.855,3.228-5.713,4.834-8.571c0.341-0.607,0.683-1.214,1.023-1.82
	c0.437-0.777,0.873-1.554,1.308-2.331c0.73-1.302,1.458-2.604,2.186-3.905c1.205-2.156,2.407-4.311,3.605-6.466
	c1.497-2.691,2.987-5.379,4.469-8.063c1.182-2.14,2.36-4.277,3.531-6.411c0.548-0.998,1.096-1.996,1.642-2.992
	c0.547-0.999,1.092-1.996,1.637-2.993c0.409-0.749,0.816-1.497,1.224-2.244c0.714-1.309,1.425-2.617,2.133-3.922
	c0.702-1.294,1.403-2.585,2.1-3.875c0.479-0.884,0.955-1.768,1.431-2.65c1.423-2.64,2.836-5.271,4.237-7.891
	c0.698-1.303,1.392-2.605,2.083-3.902c0.38-0.714,0.758-1.427,1.137-2.14c0.69-1.3,1.378-2.598,2.061-3.892
	c0.307-0.582,0.614-1.164,0.921-1.746c0.581-1.101,1.159-2.2,1.735-3.297c0.513-0.979,1.024-1.955,1.534-2.93
	c1.215-2.324,2.419-4.638,3.61-6.937c0.338-0.653,0.674-1.305,1.011-1.955c1.514-2.935,3.006-5.846,4.476-8.735
	c0.813-1.595,1.618-3.184,2.416-4.765c0.8-1.587,1.594-3.164,2.379-4.733c0.472-0.943,0.941-1.883,1.406-2.82
	c0.311-0.624,0.621-1.246,0.928-1.868c0.616-1.243,1.227-2.48,1.833-3.712c0.302-0.615,0.604-1.23,0.904-1.842
	c0.601-1.225,1.195-2.446,1.785-3.659c0.295-0.607,0.588-1.212,0.88-1.816c0.585-1.207,1.163-2.409,1.736-3.604
	c0.48-1.002,0.957-1.999,1.428-2.992c0.463-0.973,0.922-1.941,1.376-2.905c0.742-1.571,1.473-3.132,2.193-4.678
	c0.806-1.732,1.598-3.448,2.377-5.147c0.517-1.133,1.03-2.258,1.536-3.375c0.393-0.867,0.78-1.729,1.164-2.588
	c0.469-1.045,0.93-2.083,1.387-3.114c0.376-0.85,0.749-1.696,1.116-2.536c0.708-1.618,1.4-3.217,2.077-4.796
	c0.451-1.054,0.895-2.099,1.331-3.136c0.437-1.036,0.865-2.063,1.288-3.082c0.843-2.037,1.657-4.04,2.44-6.004l0.581-1.467
	c0.245-0.622,0.486-1.238,0.725-1.854c0.269-0.693,0.535-1.381,0.796-2.064c0.231-0.605,0.46-1.207,0.685-1.804
	c0.351-0.934,0.695-1.858,1.031-2.772c0.212-0.578,0.419-1.15,0.625-1.72c0.239-0.664,0.474-1.324,0.705-1.977
	c0.196-0.558,0.391-1.115,0.582-1.665c2.11-6.111,3.8-11.705,5.018-16.709c0.348-1.43,0.658-2.811,0.927-4.143
	c0.602-2.977,1.005-5.703,1.197-8.161C1468.135,866.012,1467.679,862.201,1466.288,859.592z"/>
<path style="fill:#EE7691;" d="M1989.193,720.937l-1.218,0.839c-1.123,1.231-1.653,3.306-1.389,5.094
	C1987.376,724.87,1988.246,722.891,1989.193,720.937z"/>
<path style="fill:#EE7691;" d="M2306.805,918.235c0.94-2.007,1.17-3.612,0.699-4.88l-0.315-0.499l-1.078-0.522l-0.912,0.298
	c-0.636,0.407-1.227,1.261-0.785,2.339C2304.918,916.193,2305.755,917.312,2306.805,918.235z"/>
<path style="fill:#EE7691;" d="M2285.134,708.931c1.531-2.116,3.062-4.295,4.341-6.531c-2.833-2.162-4.966-5.041-5.912-8.378
	c-0.21-0.745-0.346-1.521-0.413-2.308c-4.083,8.067-7.617,16.26-9.722,24.864c1.549-0.196,3.183-0.711,4.922-1.614
	C2280.92,713.634,2283.202,711.603,2285.134,708.931z"/>
<path style="fill:#EE7691;" d="M2287.801,692.823c0.608,2.15,1.898,4.043,3.636,5.557c0.568-1.451,0.981-2.93,1.176-4.421
	c0.281-2.099,0.029-4.261-0.7-6.085c-0.401-1.009-1.301-1.164-1.806-1.164l-0.166,0.006c-0.814,0.057-1.869,0.556-2.173,1.777
	C2287.411,689.904,2287.423,691.482,2287.801,692.823z"/>
<path style="fill:#D2DB76;" d="M1004.636,848.099c0.107-0.672,0.181-1.318,0.225-1.939c0.056-0.827,0.056-1.609-0.005-2.342
	l-0.136-1.065l-0.372-1.463l-0.15-0.421c-34.25-97.257-315.123-174.255-396.697-111.482l-0.377,0.308l-0.113,0.101l-0.257,0.234
	l-0.134,0.133l-0.222,0.224l-0.144,0.156l-0.209,0.233l-0.142,0.168l-0.193,0.238l-0.15,0.194l-0.183,0.244l-0.145,0.204
	l-0.173,0.251l-0.15,0.229l-0.16,0.253l-0.148,0.245l-0.153,0.263l-0.147,0.263l-0.145,0.269l-0.143,0.273l-0.139,0.281
	l-0.146,0.298l-0.106,0.233l-0.17,0.372l-0.057,0.136c-0.323,0.747-0.627,1.546-0.909,2.399l-0.002,0.004l-0.208,0.649l-0.013,0.042
	l-0.192,0.639l-0.023,0.081l-0.177,0.629l-0.03,0.115l-0.166,0.634l-0.033,0.126l-0.168,0.69l-0.015,0.059l-0.166,0.727
	l-0.018,0.081l-0.156,0.738l-0.016,0.078l-0.156,0.786v0.001c-2.089,10.953-2.22,27.078-0.87,46.839
	c7.101-12.064,16.161-22.638,27.078-30.79c-6.13,2.446-12.312,4.949-18.37,7.521l-0.86,0.177c-0.854,0-1.669-0.504-2.025-1.342
	c-0.476-1.118,0.046-2.408,1.164-2.884c9.014-3.836,18.286-7.506,27.255-11.056c19.629-7.764,39.922-15.798,58.674-26.005
	c3.578-1.955,7.133-3.991,10.689-6.033l5.671-3.24c1.061-0.608,2.409-0.23,2.999,0.831c0.602,1.055,0.23,2.403-0.832,2.999
	l-5.642,3.228c-3.59,2.059-7.168,4.112-10.775,6.079c-7.117,3.875-14.437,7.433-21.846,10.777
	c34.436-7.002,70.393-2.321,103.776,11.262c4.461-1.789,9.037-3.285,13.765-4.338c1.193-0.258,2.357,0.487,2.626,1.675
	c0.264,1.187-0.487,2.362-1.675,2.627c-2.992,0.665-5.934,1.525-8.833,2.534c12.702,5.618,24.989,12.524,36.628,20.563
	c16.106,11.211,35.172,15.509,55.093,18.731c3.391-1.512,6.807-3.016,10.255-4.51c1.13-0.482,2.42,0.029,2.896,1.141
	c0.487,1.118-0.029,2.414-1.141,2.896c-1.324,0.574-2.639,1.149-3.955,1.725c21.43,3.238,43.509,6.144,63.691,15.783
	c10.244,4.262,16.774,11.208,20.249,19.395l1.116,1.144c0.251,0.591,0.224,1.23-0.023,1.772
	c6.769,20.665-4.244,47.743-23.428,60.233c-31.166,23.813-76.425,22.46-99.149,56.804c-3.16,4.446-4.716,8.899-5.26,13.38
	l60.912-24.981c1.124-0.47,2.409,0.075,2.873,1.199c0.464,1.13-0.075,2.414-1.198,2.873l-62.805,25.756
	c0.319,13.129,7.445,26.558,6.76,40.815c-0.506,10.518-3.705,19.245-8.743,26.655c5.994-3.24,10.96-6.325,14.567-9.173
	c0.964-0.751,2.34-0.596,3.091,0.362c0.757,0.957,0.591,2.339-0.361,3.09c-5.511,4.351-14.037,9.212-24.481,14.323
	c-16.437,16.372-42.602,25.41-64.211,35.057c-11.189,4.994-21.294,11.926-23.849,20.986c-3.907,12.058-8.517,25.487-14.482,38.103
	c9.806-3.489,20.172-7.234,30.571-11.105c1.118-0.419,2.403,0.149,2.833,1.296c0.424,1.141-0.154,2.408-1.296,2.833
	c-11.952,4.448-23.855,8.732-34.917,12.649c-10.874,20.959-25.955,38.61-48.452,42.205l0.072,0.291l0.068,0.279l0.001,0.003
	c3.035,12.335,17.583,17.141,27.299,9.814l0.482-0.376l1.393-1.253c2.318-2.309,4.796-4.781,7.42-7.406l0.992-0.991
	c9.985-9.989,22.018-22.094,35.43-35.722c0.878-0.893,1.764-1.793,2.654-2.699l1.41-1.435c0.895-0.911,1.795-1.829,2.701-2.752
	c0.941-0.959,1.887-1.925,2.84-2.897c0.915-0.934,1.835-1.873,2.76-2.818l0.061-0.062c1.868-1.909,3.756-3.841,5.664-5.794
	c2.918-2.991,5.883-6.034,8.885-9.122c0.963-0.992,1.931-1.988,2.902-2.989c4.516-4.652,9.113-9.404,13.775-14.241
	c1.014-1.052,2.03-2.107,3.05-3.166c1.078-1.121,2.16-2.245,3.245-3.375c1.003-1.043,2.008-2.092,3.015-3.141l0.129-0.134
	c1.006-1.049,2.015-2.102,3.026-3.157c3.739-3.906,7.508-7.853,11.299-11.836c2.084-2.19,4.175-4.392,6.27-6.602l0.168-0.177
	c1.555-1.64,3.112-3.286,4.672-4.936c0.599-0.634,1.198-1.267,1.797-1.902c1.018-1.078,2.037-2.159,3.056-3.24l0.187-0.2
	c1.557-1.652,3.116-3.309,4.675-4.969l0.197-0.21c3.178-3.385,6.359-6.783,9.539-10.19l0.218-0.234
	c1.046-1.122,2.092-2.245,3.138-3.368c1.663-1.787,3.325-3.576,4.985-5.367c2.62-2.826,5.235-5.655,7.844-8.486l0.254-0.276
	c2.602-2.824,5.197-5.65,7.781-8.475l0.272-0.297c0.976-1.068,1.951-2.134,2.924-3.201c0.627-0.686,1.254-1.373,1.878-2.06
	c5.799-6.366,11.539-12.72,17.187-19.031c0.518-0.578,1.034-1.157,1.55-1.735c29.936-33.508,57.206-65.756,76.985-92.459
	c0.682-0.921,1.355-1.835,2.019-2.743c3.985-5.445,7.641-10.646,10.928-15.564c0.821-1.23,1.62-2.442,2.394-3.637
	c1.807-2.786,3.485-5.473,5.025-8.053l0.651-1.1c1.072-1.82,2.072-3.587,2.998-5.295c0.557-1.025,1.085-2.03,1.587-3.012
	c0.334-0.656,0.656-1.302,0.966-1.938l0.456-0.946c0.446-0.941,0.863-1.858,1.254-2.752c0.39-0.896,0.749-1.769,1.081-2.618
	c0.651-1.668,1.187-3.244,1.606-4.729l0.024-0.086C1004.192,850.408,1004.459,849.219,1004.636,848.099z"/>
<path style="fill:#121F25;" d="M1251.491,1003.98c1.348-0.189,6.078,3.922,9.192,6.658c8.366,7.375,18.775,16.527,27.485,10.219
	c10.092-6.726,4.604-17.806,0.2-26.711c-3.847-7.77-5.952-12.655-2.792-14.966c2.5-1.818,5.298-3.429,7.999-4.989
	c4.622-2.661,9.399-5.413,13.217-9.445c2.214-2.339,3.573-4.622,4.152-6.979c0.803-3.234-0.006-6.56-2.11-8.682
	c-1.433-1.428-3.28-2.156-4.897-2.684c-8.487-2.793-23.608-3.688-32.8-2.099c-0.115-0.522-0.241-1.084-0.379-1.681
	c-2.586-11.629-7.397-33.276-18.723-33.282h-0.005c-11.555,0-15.104,15.872-17.014,24.399l-0.23,1.038
	c-0.355,1.548-0.556,2.982-0.734,4.278c-0.613,4.41-0.866,5.207-4.788,5.161c-2.466-0.023-4.891-0.183-7.305-0.338
	c-6.348-0.402-12.925-0.82-19.68,1.198c-5.379,1.611-8.837,4.765-9.49,8.653c-0.745,4.41,2.191,8.143,4.467,10.568
	c3.59,3.825,8.189,6.388,12.633,8.871c4.083,2.271,7.937,4.421,10.683,7.317c0.952,1.72-3.194,10.144-4.759,13.315
	c-1.198,2.432-2.139,4.347-2.54,5.649c-1.468,4.771-4.903,15.935,2.557,21.366c2.208,1.577,4.559,2.248,6.962,2.248
	c9.284,0,19.462-9.995,26.091-16.503C1249.896,1005.563,1250.808,1004.663,1251.491,1003.98z"/>
<path style="fill:#E84922;" d="M1245.796,1003.418c-6.881,6.761-19.692,19.285-27.393,13.826c-4.318-3.148-2.89-10.104-0.923-16.497
	c0.298-0.97,1.261-2.925,2.282-4.995c4.272-8.676,7.065-15.065,4.037-18.258c-3.24-3.423-7.575-5.837-11.767-8.171
	c-4.151-2.317-8.446-4.714-11.566-8.039c-2.592-2.764-3.652-4.932-3.332-6.818c0.516-3.085,4.651-4.639,6.406-5.167
	c3.48-1.044,6.921-1.353,10.413-1.353c2.534,0,5.098,0.16,7.724,0.332c2.489,0.161,4.995,0.315,7.541,0.344
	c7.862,0.224,8.578-4.513,9.198-8.963c0.161-1.181,0.338-2.489,0.665-3.905l0.235-1.049c1.635-7.329,4.685-20.959,12.713-20.959
	h0.005c7.793,0.005,12.61,21.676,14.428,29.83c0.344,1.548,0.636,2.867,0.888,3.86c0.298,1.176,1.474,1.881,2.661,1.599
	c8.01-2.001,24.13-1.221,32.554,1.554c1.187,0.384,2.386,0.849,3.154,1.611c1.004,1.009,1.376,2.781,0.947,4.513
	c-0.39,1.6-1.399,3.234-3.074,5.006c-3.378,3.567-7.667,6.038-12.214,8.659c-2.804,1.611-5.705,3.286-8.395,5.247
	c-6.388,4.662-2.409,12.702,1.439,20.477c4.931,9.972,7.689,16.831,1.227,21.137c-5.929,4.335-14.875-3.578-22.06-9.904
	c-6.353-5.597-11.365-10-14.995-6.629C1247.78,1001.469,1246.84,1002.392,1245.796,1003.418z"/>
<path style="fill:#121F25;" d="M670.676,1100.782c-1.141,0.425-1.715,1.698-1.285,2.833c0.333,0.883,1.17,1.428,2.059,1.428
	l0.775-0.143c4.782-1.801,13.177-4.714,23.855-8.424c36.482-12.684,97.466-33.883,134.423-51.966
	c10.445-5.11,18.971-9.972,24.481-14.323c0.952-0.751,1.118-2.133,0.361-3.09c-0.751-0.958-2.127-1.113-3.091-0.362
	c-3.607,2.847-8.573,5.932-14.567,9.173c-34.579,18.699-103.383,42.613-143.059,56.406
	C683.911,1096.04,675.476,1098.97,670.676,1100.782z"/>
<path style="fill:#121F25;" d="M683.946,1154.065c-1.147,0.402-1.749,1.657-1.348,2.804c0.315,0.906,1.164,1.474,2.076,1.474
	l0.728-0.126l10.585-3.681c8.43-2.93,18.397-6.396,29.165-10.208c11.061-3.917,22.965-8.2,34.917-12.649
	c1.141-0.425,1.72-1.692,1.296-2.833c-0.43-1.147-1.715-1.715-2.833-1.296c-10.399,3.871-20.766,7.617-30.571,11.105
	c-12.392,4.409-23.888,8.405-33.419,11.718L683.946,1154.065z"/>
<path style="fill:#121F25;" d="M657.16,1028.885c-1.204,0.177-2.035,1.296-1.858,2.5c0.161,1.096,1.101,1.881,2.179,1.881
	l0.321-0.023c37.181-5.476,72.344-19.892,106.355-33.838l75.513-30.968l62.805-25.756c1.124-0.459,1.663-1.743,1.198-2.873
	c-0.464-1.124-1.749-1.669-2.873-1.199l-60.912,24.981l-77.406,31.744C728.725,1009.176,693.814,1023.489,657.16,1028.885z"/>
<path style="fill:#121F25;" d="M964.865,830.236c-7.999,3.401-19.692,9.112-34.498,16.337
	c-63.944,31.212-182.972,89.301-292.767,102.828c-1.204,0.149-2.065,1.244-1.915,2.455c0.137,1.112,1.084,1.932,2.185,1.932
	l0.27-0.017c110.529-13.614,229.981-71.92,294.16-103.242c14.749-7.197,26.395-12.885,34.285-16.245
	c0.529-0.224,0.922-0.63,1.141-1.112c0.247-0.542,0.274-1.181,0.023-1.772l-1.116-1.144
	C966.093,830.008,965.456,829.978,964.865,830.236z"/>
<path style="fill:#121F25;" d="M811.632,823.601c-61.134,29.767-118.878,57.888-186.538,64.563c-1.21,0.12-2.093,1.198-1.972,2.409
	c0.109,1.135,1.066,1.984,2.19,1.984l0.218-0.012c68.44-6.749,126.529-35.037,188.029-64.982
	c22.099-10.763,44.917-21.872,69.135-32.486c1.315-0.576,2.631-1.151,3.955-1.725c1.112-0.482,1.628-1.777,1.141-2.896
	c-0.476-1.113-1.766-1.623-2.896-1.141c-3.447,1.493-6.864,2.998-10.255,4.51C852.672,803.618,831.854,813.755,811.632,823.601z"/>
<path style="fill:#121F25;" d="M738.978,772.112c-18.746,10.201-39.033,18.235-58.662,26.005
	c-23.063,9.129-46.918,18.574-68.554,31.636c-1.043,0.631-1.376,1.984-0.751,3.022c0.413,0.688,1.141,1.066,1.886,1.066l1.136-0.315
	c21.326-12.879,45.003-22.249,67.906-31.315c19.749-7.816,40.163-15.901,59.149-26.235c3.607-1.967,7.197-4.019,10.78-6.078
	c9.968-5.724,20.207-11.596,31.05-15.368c2.899-1.009,5.841-1.87,8.833-2.534c1.187-0.264,1.938-1.44,1.675-2.627
	c-0.269-1.187-1.434-1.932-2.626-1.675c-4.728,1.052-9.304,2.549-13.765,4.338c-9.542,3.826-18.552,8.994-27.356,14.047
	C746.117,768.121,742.562,770.162,738.978,772.112z"/>
<path style="fill:#121F25;" d="M673.258,740.771c7.409-3.344,14.729-6.902,21.846-10.777c3.607-1.967,7.186-4.02,10.775-6.079
	l5.642-3.228c1.061-0.596,1.434-1.944,0.832-2.999c-0.59-1.061-1.938-1.439-2.999-0.831l-5.671,3.24
	c-3.556,2.042-7.111,4.077-10.689,6.033c-18.751,10.207-39.045,18.241-58.674,26.005c-8.969,3.55-18.241,7.22-27.255,11.056
	c-1.118,0.476-1.64,1.766-1.164,2.884c0.356,0.837,1.17,1.342,2.025,1.342l0.86-0.177c6.059-2.572,12.24-5.075,18.37-7.521
	c2.946-1.176,5.88-2.339,8.782-3.489C648.287,751.342,660.899,746.352,673.258,740.771z"/>
<path style="fill:#121F25;" d="M1594.977,909.437c-8.501,0-8.514,13.212,0,13.212
	C1603.478,922.649,1603.492,909.437,1594.977,909.437z"/>
<path style="fill:#121F25;" d="M1754.043,1045.739c-8.501,0-8.515,13.212,0,13.212
	C1762.544,1058.951,1762.559,1045.739,1754.043,1045.739z"/>
<path style="fill:#121F25;" d="M1733.114,917.81c-8.501,0-8.516,13.212,0,13.212C1741.615,931.022,1741.629,917.81,1733.114,917.81z
	"/>
<path style="fill:#121F25;" d="M1682.882,800.211c8.501,0,8.516-13.212,0-13.212
	C1674.381,786.999,1674.367,800.211,1682.882,800.211z"/>
<path style="fill:#121F25;" d="M1834.623,776.141c8.501,0,8.516-13.212,0-13.212
	C1826.122,762.929,1826.107,776.141,1834.623,776.141z"/>
<path style="fill:#121F25;" d="M1859.398,968.687l0.341,0.009c8.501,0,8.516-13.212,0-13.212c-3.46,0-5.513,2.188-6.159,4.783
	C1852.66,963.962,1854.597,968.482,1859.398,968.687z"/>
<path style="fill:#121F25;" d="M1802.879,1160.595c-8.501,0-8.514,13.212,0,13.212
	C1811.38,1173.807,1811.395,1160.595,1802.879,1160.595z"/>
<path style="fill:#121F25;" d="M423.629,670.499l0.78,0.144c0.889,0,1.726-0.539,2.059-1.422l1.21-3.182l3.985-10.483
	c0.43-1.141-0.138-2.414-1.273-2.844c-1.147-0.43-2.414,0.143-2.844,1.273l-4.09,10.766l-1.106,2.91
	C421.92,668.797,422.488,670.07,423.629,670.499z"/>
<path style="fill:#121F25;" d="M479.281,727.665l0.786,0.143c0.888,0,1.72-0.539,2.058-1.416l5.201-13.676
	c0.43-1.136-0.138-2.409-1.279-2.839c-1.141-0.436-2.409,0.143-2.839,1.279l-5.201,13.665
	C477.578,725.957,478.145,727.23,479.281,727.665z"/>
<path style="fill:#121F25;" d="M467.841,793.955c-1.147-0.43-2.408,0.143-2.839,1.278l-5.195,13.671
	c-0.43,1.135,0.137,2.408,1.278,2.839l0.78,0.143c0.889,0,1.726-0.539,2.059-1.422l5.195-13.671
	C469.549,795.657,468.982,794.384,467.841,793.955z"/>
<path style="fill:#121F25;" d="M382.477,880.616l1.11,0.931l0.78,0.143c0.889,0,1.726-0.539,2.059-1.422l5.201-13.665
	c0.43-1.141-0.137-2.414-1.273-2.844c-1.147-0.431-2.414,0.143-2.844,1.273l-4.46,11.726l-0.741,1.95
	C382.06,879.361,382.144,880.058,382.477,880.616z"/>
<path style="fill:#121F25;" d="M306.797,869.16c-1.147-0.43-2.414,0.143-2.844,1.273l-5.201,13.671
	c-0.43,1.136,0.138,2.409,1.273,2.844l0.786,0.143c0.889,0,1.721-0.539,2.059-1.416l5.201-13.67
	C308.501,870.863,307.933,869.59,306.797,869.16z"/>
<path style="fill:#121F25;" d="M223.518,1018.758c-1.147-0.424-2.408,0.144-2.839,1.279l-3.907,10.27l-1.294,3.401
	c-0.43,1.136,0.137,2.409,1.273,2.844l0.786,0.143c0.888,0,1.72-0.539,2.059-1.416l3.354-8.822l1.847-4.86
	C225.226,1020.461,224.659,1019.188,223.518,1018.758z"/>
<path style="fill:#121F25;" d="M360.448,747.787c-1.142-0.43-2.415,0.143-2.844,1.273l-5.201,13.676
	c-0.43,1.135,0.138,2.408,1.279,2.839l0.78,0.143c0.889,0,1.726-0.539,2.059-1.422l5.201-13.665
	C362.151,749.49,361.583,748.217,360.448,747.787z"/>
<path style="fill:#121F25;" d="M341.014,585.969c-1.136-0.424-2.409,0.138-2.839,1.279l-5.195,13.676
	c-0.43,1.136,0.138,2.409,1.279,2.839l0.78,0.143c0.889,0,1.726-0.539,2.059-1.422l5.195-13.676
	C342.723,587.673,342.155,586.4,341.014,585.969z"/>
<path style="fill:#121F25;" d="M212.88,600.925c-0.43,1.136,0.137,2.409,1.279,2.839l0.78,0.143c0.889,0,1.726-0.539,2.059-1.422
	l2.288-6.017l2.913-7.659c0.43-1.135-0.137-2.408-1.279-2.839c-1.147-0.424-2.408,0.138-2.839,1.279l-3.996,10.51L212.88,600.925z"
	/>
<path style="fill:#121F25;" d="M541.94,723.548c-1.147-0.43-2.409,0.143-2.839,1.279l-5.195,13.676
	c-0.43,1.136,0.137,2.409,1.279,2.839l0.78,0.143c0.888,0,1.726-0.539,2.059-1.422l5.195-13.676
	C543.649,725.251,543.081,723.978,541.94,723.548z"/>
<path style="fill:#121F25;" d="M264.203,754.622c-1.141-0.424-2.414,0.143-2.844,1.273l-5.195,13.676
	c-0.43,1.136,0.137,2.409,1.279,2.839l0.78,0.143c0.888,0,1.726-0.539,2.059-1.422l5.195-13.665
	C265.906,756.326,265.338,755.053,264.203,754.622z"/>
<path style="fill:#121F25;" d="M195.689,843.722c-1.147-0.424-2.409,0.138-2.839,1.279l-5.195,13.665
	c-0.43,1.141,0.137,2.414,1.273,2.844l0.786,0.144c0.889,0,1.726-0.539,2.059-1.417l5.195-13.676
	C197.398,845.426,196.83,844.153,195.689,843.722z"/>
<path style="fill:#121F25;" d="M290.002,649.019c-1.147-0.436-2.409,0.138-2.839,1.279l-5.195,13.671
	c-0.43,1.136,0.138,2.409,1.279,2.839l0.78,0.144c0.889,0,1.726-0.539,2.059-1.422l5.195-13.671
	C291.71,650.722,291.143,649.449,290.002,649.019z"/>
<path style="fill:#121F25;" d="M248.623,938.586c-1.147-0.43-2.408,0.143-2.839,1.279l-5.195,13.676
	c-0.43,1.136,0.138,2.409,1.279,2.839l0.78,0.143c0.889,0,1.726-0.539,2.059-1.422l5.195-13.676
	C250.331,940.289,249.763,939.016,248.623,938.586z"/>
<path style="fill:#121F25;" d="M178.107,698.042c-1.124-0.43-2.408,0.137-2.844,1.273l-5.201,13.682
	c-0.43,1.135,0.137,2.408,1.279,2.839l0.78,0.143c0.889,0,1.726-0.539,2.059-1.422l5.201-13.671
	C179.811,699.751,179.243,698.478,178.107,698.042z"/>
<path style="fill:#121F25;" d="M1997.242,743.894c6.423,2.454,13.826,2.156,21.516-0.883c6.463-2.546,11.165-5.792,14.37-9.926
	c1.594-2.048,2.907-4.273,3.916-6.572l0.161,0.057c6.681,2.557,14.502,2.265,20.907-0.763c6.463-3.056,11.836-8.671,15.316-15.477
	c6.732,2.804,14.898,2.735,21.63-0.241c7.449-3.291,13.207-9.702,16.326-17.157c1.64,0.682,3.4,1.152,5.241,1.371
	c8.286,1.003,20.489-4.192,26.647-9.68c6.25-5.58,10.459-11.228,12.604-16.916c5.619,0.241,11.675-1.113,17.208-4.175
	c6.709-3.716,12.696-9.622,18.281-18.046c1.795,0.797,3.71,1.365,5.683,1.674c9.037,1.359,19.319-2.122,27.588-9.358
	c5.843-5.115,10.545-12.346,12.461-20.013c5.321,2.856,11.83,3.871,19.583-0.138c3.808-1.984,7.163-4.948,9.972-8.825
	c2.018-2.787,4.037-5.677,5.734-8.682c4.834,2.328,10.592,3.183,16.263,2.013c6.184-1.295,11.979-4.693,16.638-9.536
	c3.247-3.373,5.942-7.448,7.83-12.002c0.86-2.087,1.984-5.247,1.738-8.527c-0.086-1.21-1.107-2.179-2.357-2.036
	c-1.216,0.092-2.127,1.147-2.036,2.357c0.178,2.351-0.722,4.851-1.416,6.52c-1.469,3.545-3.535,6.792-6.005,9.573
	c-4.231,4.763-9.646,8.16-15.298,9.339c-4.651,0.986-9.427,0.304-13.39-1.588c1.118-2.54,1.944-5.173,2.299-7.908
	c0.442-3.389,0.023-6.893-1.17-9.863c-1.176-2.936-3.991-4.668-7.271-4.473c-3.406,0.235-6.245,2.592-7.065,5.861
	c-0.636,2.563-0.608,5.327,0.086,7.776c1.165,4.106,3.831,7.627,7.375,10.23c-1.611,2.867-3.561,5.659-5.522,8.366
	c-2.403,3.308-5.241,5.831-8.436,7.494c-6.571,3.412-11.921,2.431-16.756-0.608c0.539-5.74-0.631-11.537-4.168-16.704
	c-2.127-3.12-6.423-3.991-9.548-1.99c-1.588,1.026-2.546,2.512-2.77,4.295c-0.493,3.962,2.793,7.856,3.813,8.951
	c2.116,2.282,4.731,5.097,7.85,7.489c-1.365,7.254-5.694,14.376-11.336,19.313c-7.3,6.4-16.291,9.548-24.016,8.315
	c-1.382-0.213-2.735-0.591-4.019-1.119c2.259-4.129,4.083-9.289,2.242-14.244c-0.373-0.992-0.946-1.91-1.709-2.735
	c-2.81-3.034-7.071-3.561-10.603-1.296c-3.722,2.38-5.161,6.858-3.498,10.89c1.48,3.595,4.101,6.721,7.386,9.02
	c-5.132,7.679-10.557,13.035-16.567,16.36c-4.392,2.431-9.134,3.676-13.567,3.676h-0.27c0.797-4.129,0.51-8.264-0.866-12.398
	c-0.952-2.878-3.171-5.161-5.935-6.107c-3.005-1.032-6.073-0.464-8.418,1.554c-2.615,2.242-3.962,5.998-3.366,9.336
	c0.694,3.894,3.601,7.386,7.982,9.576c1.537,0.774,3.183,1.359,4.903,1.76c-1.772,4.135-5.109,8.94-11.078,14.256
	c-5.322,4.748-16.2,9.387-23.184,8.601c-1.52-0.183-2.982-0.596-4.33-1.187c1.537-5.637,1.594-11.624-0.183-17.169
	c-0.729-2.259-2.759-3.802-5.173-3.934c-2.471-0.132-4.828,1.267-5.849,3.578c-0.912,2.059-1.387,4.278-1.382,6.405
	c0.011,5.173,2.844,9.978,7.214,13.12c-2.66,6.664-7.701,12.455-14.17,15.316c-5.545,2.449-12.501,2.523-18.069,0.235
	c1.64-4.341,2.546-9.02,2.535-13.751c-0.006-3.125-1.743-5.986-4.421-7.288c-2.569-1.261-5.333-0.906-7.575,0.929
	c-3.148,2.587-4.794,7.781-3.745,11.824c1.078,4.151,3.722,7.718,7.552,10.264c-3.033,5.981-7.707,10.89-13.327,13.551
	c-5.333,2.523-11.858,2.769-17.455,0.631l-0.247-0.097c1.439-5.179,1.393-10.454-0.344-14.806c-1.198-2.988-4.169-4.719-7.357-4.381
	c-3.149,0.355-5.494,2.604-5.975,5.717c-0.385,2.426-0.103,4.926,0.786,7.042c1.468,3.486,4.054,6.439,7.454,8.589
	c-0.877,2.059-2.036,4.049-3.44,5.867c-2.713,3.486-6.807,6.279-12.512,8.527c-6.703,2.649-12.851,2.953-18.298,0.877
	c1.869-6.256,1.376-12.914-1.457-18.625c-1.124-2.277-3.09-3.917-5.396-4.513l-0.507-0.113c-2.521-0.474-4.985,0.318-6.758,2.269
	c-2.432,2.667-3.28,7.122-2.024,10.597c0.41,1.134,0.982,2.356,1.717,3.603c1.877,3.179,4.818,6.517,8.862,8.955
	c-2.511,5.145-6.95,9.274-12.764,11.903c-0.958,0.433-1.952,0.827-2.982,1.177c-1.147,0.396-1.766,1.646-1.376,2.798
	c0.315,0.912,1.17,1.492,2.088,1.492l0.711-0.115l1.329-0.482C1988.044,755.777,1993.984,750.575,1997.242,743.894z
	 M2265.471,586.452c-0.487-1.726-0.504-3.682-0.046-5.511c0.436-1.743,1.932-2.454,3.085-2.529l0.218-0.011
	c0.659,0,2.059,0.195,2.672,1.726c0.912,2.282,1.227,5.001,0.883,7.655c-0.27,2.07-0.877,4.112-1.715,6.113
	C2268.127,591.922,2266.303,589.376,2265.471,586.452z M2225.778,599.285c0.046-0.344,0.172-0.745,0.786-1.141l1.313-0.384
	c0.888,0,1.749,0.47,2.213,1.152c2.26,3.309,3.321,7.03,3.429,10.861c-1.72-1.549-3.4-3.28-5.074-5.081
	C2226.713,602.823,2225.612,600.598,2225.778,599.285z M2184.205,632.625c-0.981-2.38,0.201-4.478,1.8-5.505
	c0.367-0.235,1.233-0.711,2.288-0.711c0.843,0,1.8,0.309,2.712,1.284l0.809,1.29c1.021,2.741,0.372,6.216-1.973,10.557
	C2187.324,637.728,2185.317,635.319,2184.205,632.625z M2142.865,654.965c-0.326-1.829,0.453-3.979,1.898-5.224
	c0.78-0.665,1.645-0.998,2.586-0.998l1.537,0.27c1.474,0.504,2.661,1.749,3.188,3.332c0.591,1.795,1.806,5.448,0.705,10.528
	c-1.52-0.327-2.959-0.826-4.295-1.491C2145.36,659.817,2143.313,657.477,2142.865,654.965z M2104.64,677.616
	c-0.006-1.52,0.344-3.114,1.004-4.617c0.315-0.711,0.963-0.958,1.496-0.958h0.092c0.355,0.023,0.98,0.161,1.209,0.878
	c1.365,4.237,1.422,8.848,0.419,13.292C2106.281,683.918,2104.646,680.833,2104.64,677.616z M2066.272,696.906
	c-0.625-2.391,0.441-5.808,2.271-7.311c0.625-0.51,1.193-0.676,1.686-0.676l1.17,0.298c1.176,0.574,1.938,1.887,1.944,3.344
	c0.006,3.979-0.705,7.919-2.013,11.589C2069.191,702.583,2067.143,700.267,2066.272,696.906z M2029.698,714.224
	c-0.568-1.348-0.746-3.045-0.499-4.656c0.264-1.68,1.692-1.967,2.122-2.019l0.327-0.017c0.912,0,1.955,0.43,2.443,1.657
	c1.262,3.16,1.359,7.059,0.442,10.987C2032.342,718.582,2030.679,716.552,2029.698,714.224z M1986.839,727.906l-0.254-1.035
	c-0.264-1.789,0.267-3.863,1.389-5.094l1.218-0.839l0.834-0.136l0.86,0.12c1.066,0.275,1.995,1.072,2.552,2.196
	c2.213,4.479,2.689,9.668,1.399,14.628C1990.607,734.971,1987.969,731.026,1986.839,727.906z"/>
<path style="fill:#121F25;" d="M2283.495,687.422c-0.352,1.394-0.465,2.862-0.344,4.292c0.066,0.787,0.203,1.563,0.413,2.308
	c0.946,3.338,3.079,6.216,5.912,8.378c-1.279,2.236-2.81,4.415-4.341,6.531c-1.933,2.672-4.214,4.702-6.783,6.032
	c-1.739,0.903-3.373,1.418-4.922,1.614c-3.015,0.384-5.708-0.442-8.227-1.975c0.39-4.714-0.602-9.461-3.509-13.711
	c-1.864-2.729-5.625-3.515-8.378-1.743c-1.405,0.906-2.248,2.219-2.449,3.802c-0.43,3.429,2.368,6.738,3.229,7.667
	c1.715,1.846,3.808,4.1,6.302,6.05c-1.153,5.78-4.628,11.434-9.135,15.379c-5.912,5.178-13.149,7.701-19.393,6.726
	c-0.952-0.143-1.893-0.396-2.793-0.728c1.794-3.4,3.154-7.575,1.651-11.612c-0.321-0.871-0.82-1.674-1.479-2.385
	c-2.455-2.638-6.153-3.097-9.204-1.13c-3.217,2.059-4.467,5.935-3.027,9.422c1.192,2.907,3.274,5.448,5.889,7.352
	c-4.117,6.072-8.458,10.327-13.252,12.982c-3.464,1.921-7.186,2.919-10.683,2.965c0.551-3.292,0.286-6.595-0.809-9.898
	c-0.82-2.477-2.729-4.45-5.12-5.27c-2.604-0.883-5.27-0.396-7.3,1.359c-2.242,1.927-3.406,5.155-2.89,8.022
	c0.591,3.326,3.056,6.291,6.761,8.143c1.153,0.58,2.374,1.032,3.652,1.365c-1.479,3.245-4.157,6.99-8.802,11.13
	c-4.307,3.836-13.069,7.615-18.717,6.967c-1.095-0.132-2.15-0.413-3.137-0.814c1.198-4.599,1.21-9.467-0.241-13.986
	c-0.648-2.007-2.449-3.378-4.593-3.492c-2.277-0.132-4.272,1.112-5.19,3.165c-0.769,1.732-1.17,3.607-1.164,5.419
	c0.005,4.272,2.293,8.251,5.837,10.907c-2.173,5.252-6.181,9.8-11.308,12.065c-4.329,1.915-9.737,2.03-14.147,0.338
	c1.319-3.716,1.95-7.547,1.944-11.062c0-2.718-1.514-5.207-3.848-6.336c-2.236-1.089-4.656-0.797-6.629,0.803
	c-2.7,2.208-4.112,6.646-3.217,10.116c0.883,3.395,3.005,6.325,6.072,8.452c-2.448,4.691-6.159,8.527-10.597,10.632
	c-4.255,2.007-9.433,2.213-13.883,0.556c1.107-4.22,1.026-8.504-0.39-12.047c-1.049-2.627-3.676-4.129-6.446-3.854
	c-2.764,0.315-4.828,2.282-5.252,5.023c-0.321,2.064-0.086,4.191,0.671,5.998c1.199,2.839,3.269,5.258,5.987,7.047
	c-0.688,1.549-1.577,3.039-2.638,4.416c-2.179,2.804-5.482,5.052-10.104,6.875c-5.276,2.082-10.11,2.368-14.394,0.843
	c1.445-5.121,0.992-10.545-1.319-15.219c-0.98-1.967-2.689-3.395-4.685-3.911c-2.397-0.619-4.707,0.074-6.359,1.892
	c-2.082,2.294-2.81,6.119-1.732,9.095c1.193,3.292,4.008,7.484,8.538,10.317c-2.397,4.668-6.789,8.263-12.535,10.212
	c-1.152,0.396-1.771,1.646-1.382,2.793c0.315,0.918,1.17,1.497,2.087,1.497l0.705-0.115c6.886-2.34,12.179-6.726,15.081-12.455
	c5.305,1.915,11.354,1.617,17.611-0.854c5.379-2.122,9.29-4.829,11.962-8.275c1.25-1.606,2.288-3.338,3.108-5.132
	c5.545,2.047,11.973,1.783,17.249-0.723c5.814-2.752,9.972-7.363,12.638-12.535c5.551,2.179,12.186,2.076,17.679-0.362
	c6.084-2.683,10.815-7.873,13.441-13.928c1.279,0.493,2.637,0.843,4.049,1.009c6.967,0.895,17.065-3.486,22.18-8.045
	c5.081-4.536,8.539-9.134,10.351-13.768c4.605,0.189,9.531-0.987,14.038-3.487c5.494-3.045,10.396-7.844,14.961-14.662
	c1.416,0.596,2.913,1.026,4.456,1.267c7.5,1.159,16.09-1.749,22.96-7.77c4.725-4.135,8.55-9.937,10.219-16.125
	c2.408,1.221,5.099,1.98,8.084,1.871c2.439-0.089,5.073-0.757,7.915-2.232c3.183-1.651,5.981-4.129,8.321-7.363
	c1.594-2.202,3.188-4.473,4.553-6.847c3.985,1.835,8.676,2.5,13.269,1.537c8.733-1.829,16.538-8.693,20.363-17.914
	c0.722-1.749,1.663-4.398,1.451-7.185c-0.097-1.204-0.958-2.139-2.369-2.024c-1.21,0.092-2.116,1.153-2.024,2.368
	c0.109,1.399-0.252,3.034-1.13,5.155c-3.223,7.776-9.972,13.78-17.197,15.288c-3.595,0.757-7.294,0.269-10.402-1.113
	c0.855-2.007,1.486-4.083,1.766-6.245c0.373-2.833,0.029-5.775-0.98-8.292c-1.032-2.575-3.55-4.1-6.365-3.917
	c-0.589,0.041-1.157,0.157-1.696,0.335C2285.761,683.378,2284.059,685.142,2283.495,687.422z M2065.068,816.439
	c-3.119-2.202-5.081-5.184-5.941-7.564c-0.528-1.457-0.149-3.533,0.848-4.634l1.387-0.671l0.614,0.086
	c0.757,0.195,1.434,0.78,1.841,1.6C2065.509,808.68,2065.934,812.631,2065.068,816.439z M2097.639,801.982
	c-1.497-1.204-2.644-2.683-3.349-4.346c-0.436-1.049-0.574-2.368-0.385-3.618c0.172-1.072,1.032-1.279,1.399-1.325l0.218-0.011
	c0.614,0,1.314,0.292,1.646,1.124C2098.109,796.162,2098.235,799.041,2097.639,801.982z M2127.899,788.868
	c-1.537-1.233-2.947-2.971-3.578-5.396c-0.476-1.835,0.338-4.456,1.738-5.596l1.124-0.465l0.797,0.212
	c0.814,0.396,1.365,1.348,1.365,2.38C2129.35,783.036,2128.84,786.041,2127.899,788.868z M2158.658,774.028
	c-1.749-1.743-2.827-3.98-2.833-6.291c-0.006-1.204,0.27-2.455,0.786-3.618l0.877-0.556h0.046l0.636,0.442
	C2159.203,767.204,2159.306,770.662,2158.658,774.028z M2194.624,755.161c-1.072-0.258-2.088-0.625-3.039-1.101
	c-1.159-0.585-3.911-2.225-4.398-4.983c-0.241-1.348,0.361-2.994,1.427-3.911c0.563-0.482,1.193-0.723,1.875-0.723l1.124,0.195
	c1.095,0.373,1.978,1.302,2.362,2.483C2194.44,748.51,2195.364,751.291,2194.624,755.161z M2225.216,735.9
	c-1.835-1.405-3.297-3.217-4.129-5.235c-0.716-1.743,0.149-3.285,1.331-4.037c0.263-0.172,0.889-0.51,1.646-0.51
	c0.608,0,1.296,0.218,1.955,0.924l0.579,0.923C2227.367,730.016,2226.914,732.631,2225.216,735.9z M2257.323,707.618
	c-1.33-1.427-2.208-3.159-2.087-4.117l0.465-0.648l0.871-0.258c0.597,0,1.17,0.321,1.485,0.78c1.623,2.368,2.471,5.012,2.695,7.741
	C2259.594,710.026,2258.458,708.845,2257.323,707.618z M2289.94,686.717l0.166-0.006c0.505,0,1.405,0.155,1.806,1.164
	c0.729,1.824,0.981,3.985,0.7,6.085c-0.195,1.491-0.608,2.97-1.176,4.421c-1.737-1.514-3.028-3.406-3.636-5.557
	c-0.378-1.342-0.39-2.919-0.034-4.329C2288.07,687.273,2289.125,686.774,2289.94,686.717z"/>
<path style="fill:#121F25;" d="M2311.369,802.596c0.539-1.365,0.935-2.775,1.124-4.237c0.292-2.237,0.029-4.456-0.763-6.417
	c-0.854-2.139-2.964-3.315-5.275-3.257c-2.443,0.166-4.472,1.858-5.057,4.203c-0.425,1.692-0.407,3.527,0.057,5.173
	c0.694,2.466,2.179,4.593,4.152,6.222c-0.872,1.468-1.887,2.907-2.902,4.306c-1.376,1.904-2.999,3.344-4.817,4.284
	c-3.435,1.789-6.262,1.44-8.854-0.051c0.224-3.493-0.556-7.008-2.718-10.167c-1.56-2.265-4.691-2.924-6.979-1.445
	c-1.187,0.769-1.898,1.881-2.07,3.228c-0.344,2.776,1.858,5.391,2.54,6.124c1.165,1.256,2.655,2.861,4.456,4.295
	c-0.894,4.026-3.349,7.954-6.508,10.718c-4.238,3.716-9.427,5.528-13.865,4.84l-1.342-0.304c1.227-2.506,2.041-5.511,0.94-8.47
	c-0.27-0.717-0.682-1.37-1.204-1.932c-2.001-2.162-5.023-2.523-7.535-0.935c-2.615,1.675-3.63,4.829-2.46,7.678
	c0.86,2.076,2.3,3.906,4.106,5.333c-2.901,4.175-5.952,7.117-9.289,8.969c-2.254,1.244-4.656,1.949-6.939,2.093
	c0.275-2.288,0.035-4.587-0.734-6.893c-0.659-2.013-2.213-3.607-4.146-4.255c-2.127-0.74-4.284-0.321-5.947,1.101
	c-1.841,1.577-2.753,4.117-2.334,6.469c0.464,2.638,2.403,4.983,5.31,6.434c0.682,0.344,1.394,0.631,2.133,0.86
	c-1.107,2.191-2.988,4.685-6.073,7.438c-3.079,2.741-9.484,5.436-13.378,5c-0.591-0.074-1.164-0.206-1.715-0.39
	c0.785-3.355,0.746-6.875-0.304-10.15c-0.551-1.715-2.087-2.89-3.917-2.982c-1.944-0.126-3.618,0.952-4.381,2.678
	c-0.603,1.354-0.918,2.822-0.918,4.238c0.006,3.194,1.64,6.181,4.198,8.246c-1.583,3.578-4.37,6.652-7.897,8.211
	c-2.907,1.279-6.474,1.417-9.501,0.425c0.877-2.644,1.296-5.339,1.29-7.827c0-2.231-1.244-4.272-3.166-5.201
	c-1.881-0.924-3.893-0.671-5.516,0.665c-2.191,1.795-3.292,5.258-2.569,8.063c0.648,2.494,2.145,4.656,4.301,6.279
	c-1.749,3.16-4.301,5.734-7.334,7.168c-2.799,1.325-6.325,1.531-9.336,0.557c0.711-3.068,0.603-6.159-0.436-8.751
	c-0.871-2.179-3.073-3.481-5.362-3.2c-2.271,0.264-4.031,1.95-4.381,4.192c-0.258,1.628-0.069,3.308,0.534,4.748
	c0.865,2.058,2.323,3.83,4.226,5.184c-0.458,0.946-1.026,1.864-1.686,2.712c-1.542,1.99-3.9,3.595-7.214,4.903
	c-3.567,1.405-6.847,1.669-9.732,0.78c0.929-3.768,0.539-7.707-1.158-11.125c-0.792-1.6-2.185-2.764-3.831-3.194
	c-1.978-0.499-3.894,0.052-5.27,1.566c-1.703,1.869-2.277,4.868-1.399,7.305c0.877,2.42,2.89,5.459,6.096,7.621
	c-1.75,3.096-4.777,5.487-8.694,6.812c-1.147,0.396-1.766,1.646-1.376,2.799c0.315,0.912,1.17,1.491,2.088,1.491l0.711-0.115
	c5.046-1.72,8.974-4.897,11.234-9.049c3.056,0.98,7.431,1.382,12.948-0.797c4.071-1.605,7.042-3.664,9.078-6.297
	c0.837-1.083,1.554-2.236,2.145-3.435c4.117,1.37,8.819,1.118,12.696-0.728c4.249-2.013,7.334-5.328,9.364-9.072
	c4.146,1.474,8.986,1.331,13.029-0.453c4.461-1.972,7.965-5.712,10-10.104c0.837,0.286,1.72,0.487,2.627,0.597
	c5.413,0.665,12.988-2.655,16.841-6.085c3.693-3.297,6.251-6.646,7.661-10.023c3.601-0.04,6.979-0.837,10.265-2.655
	c4.031-2.236,7.638-5.717,10.992-10.631c0.964,0.367,1.961,0.636,2.994,0.797c5.7,0.872,12.237-1.325,17.433-5.883
	c3.412-2.988,6.204-7.122,7.546-11.572c3.24,1.468,7.157,1.829,11.715-0.533c2.432-1.262,4.565-3.148,6.354-5.608
	c1.078-1.491,2.156-3.022,3.108-4.622c2.93,1.232,6.319,1.617,9.714,0.917c0.897-0.188,1.779-0.448,2.644-0.77
	c5.54-2.063,10.311-6.768,12.815-12.815c0.556-1.342,1.278-3.383,1.118-5.562c-0.092-1.21-1.153-2.15-2.357-2.036
	c-1.215,0.092-2.127,1.147-2.036,2.357c0.069,0.952-0.183,2.076-0.797,3.555c-1.94,4.682-5.651,8.463-9.842,10.195
	c-0.803,0.332-1.624,0.59-2.453,0.763C2315.831,803.663,2313.439,803.404,2311.369,802.596z M2140.13,887.361
	c-1.783-1.474-2.924-3.286-3.463-4.76c-0.315-0.888-0.08-2.19,0.516-2.844l0.608-0.31l0.298,0.046l0.992,0.883
	C2140.142,882.516,2140.497,884.958,2140.13,887.361z M2164.203,876.569c-0.671-0.682-1.198-1.462-1.554-2.305
	c-0.281-0.671-0.373-1.554-0.247-2.362l0.527-0.493l0.104-0.006l0.677,0.459C2164.26,873.237,2164.409,874.866,2164.203,876.569z
	 M2186.67,866.981c-0.786-0.786-1.462-1.806-1.8-3.108c-0.293-1.13,0.241-2.856,1.089-3.55l0.47-0.212l0.338,0.098
	c0.407,0.195,0.682,0.693,0.682,1.244C2187.456,863.334,2187.18,865.204,2186.67,866.981z M2209.315,855.725
	c-0.722-1.003-1.141-2.156-1.147-3.338c0-0.803,0.19-1.651,0.614-2.58C2209.395,851.699,2209.55,853.718,2209.315,855.725z
	 M2235.802,842.37l-1.514-0.602c-1.629-0.814-2.73-2.035-2.948-3.274c-0.143-0.797,0.229-1.806,0.866-2.351l1.004-0.396l0.659,0.121
	c0.631,0.212,1.147,0.757,1.382,1.468C2235.55,838.241,2236.128,839.967,2235.802,842.37z M2258.688,827.959
	c-1.021-0.906-1.835-1.996-2.328-3.188c-0.43-1.049,0.143-1.887,0.762-2.288l0.889-0.281l1.049,0.504l0.304,0.482
	C2259.823,824.421,2259.605,825.998,2258.688,827.959z M2283.03,807.568c-1.072-1.158-1.473-2.311-1.307-2.655l0.332-0.097
	l0.625,0.326c0.809,1.181,1.347,2.46,1.646,3.785L2283.03,807.568z M2308.124,797.791c-0.097,0.774-0.287,1.548-0.539,2.322
	c-0.889-0.935-1.548-2.036-1.893-3.251c-0.252-0.9-0.264-1.955-0.023-2.902c0.195-0.78,0.941-0.871,1.09-0.883h0.092l0.797,0.505
	C2308.146,794.826,2308.319,796.323,2308.124,797.791z"/>
<path style="fill:#121F25;" d="M2288.007,933.288c0.292-2.328,0.046-4.668-0.728-7.008c-0.671-2.018-2.237-3.618-4.18-4.284
	c-2.133-0.74-4.318-0.315-5.987,1.113c-1.829,1.565-2.775,4.191-2.356,6.526c0.476,2.661,2.426,5.029,5.356,6.491
	c0.699,0.349,1.433,0.642,2.19,0.877c-1.124,2.225-3.028,4.765-6.158,7.558c-3.125,2.781-9.554,5.511-13.573,5.075
	c-0.608-0.075-1.198-0.213-1.755-0.407c0.797-3.395,0.763-6.967-0.31-10.287c-0.55-1.721-2.099-2.896-3.934-2.994
	c-1.915-0.143-3.641,0.952-4.416,2.695c-0.602,1.365-0.923,2.839-0.923,4.278c0.006,3.234,1.663,6.256,4.255,8.338
	c-1.605,3.636-4.438,6.761-8.016,8.344c-2.948,1.302-6.589,1.439-9.656,0.419c0.894-2.678,1.319-5.419,1.313-7.948
	c-0.012-2.237-1.262-4.289-3.188-5.229c-1.881-0.918-3.911-0.659-5.562,0.676c-2.202,1.806-3.315,5.304-2.586,8.126
	c0.654,2.523,2.173,4.719,4.364,6.359c-1.778,3.206-4.37,5.826-7.449,7.282c-1.101,0.522-1.571,1.835-1.049,2.931
	c0.379,0.797,1.164,1.261,1.99,1.261l0.94-0.212c4.306-2.036,7.426-5.396,9.479-9.187c4.18,1.497,9.089,1.359,13.183-0.453
	c4.519-1.996,8.063-5.78,10.122-10.23c0.854,0.292,1.749,0.498,2.678,0.608c5.499,0.682,13.126-2.683,17.025-6.153
	c3.739-3.337,6.325-6.726,7.747-10.155c3.532,0.206,7.071-0.837,10.396-2.684l0.718-0.415c3.799-2.272,7.218-5.675,10.412-10.354
	c0.975,0.373,1.995,0.648,3.039,0.814c5.809,0.877,12.363-1.342,17.627-5.947c0.912-0.803,1.01-2.19,0.207-3.108
	c-0.803-0.917-2.191-1.009-3.108-0.206c-4.301,3.762-9.548,5.597-14.055,4.903l-1.393-0.315c1.124-2.317,2.104-5.511,0.969-8.573
	c-0.275-0.723-0.688-1.382-1.221-1.956c-2.012-2.173-5.063-2.551-7.587-0.94c-2.638,1.686-3.658,4.863-2.483,7.73
	c0.866,2.104,2.328,3.962,4.163,5.407c-2.593,3.742-5.306,6.507-8.243,8.399l-1.178,0.707
	C2292.79,932.433,2290.342,933.144,2288.007,933.288z M2233.921,957.738c-0.815-0.808-1.514-1.852-1.864-3.194
	c-0.298-1.147,0.241-2.907,1.112-3.618l0.493-0.224l0.35,0.097c0.425,0.207,0.711,0.728,0.711,1.29
	C2234.73,954.012,2234.448,955.921,2233.921,957.738z M2256.847,946.367c-0.763-1.032-1.204-2.225-1.21-3.452
	c0-0.82,0.189-1.68,0.677-2.626C2256.939,942.233,2257.094,944.309,2256.847,946.367z M2283.655,932.811
	c-0.551-0.166-1.072-0.373-1.571-0.619c-1.651-0.826-2.77-2.07-2.993-3.326c-0.144-0.82,0.235-1.858,0.888-2.42l1.032-0.407
	l0.665,0.12c0.654,0.224,1.187,0.792,1.422,1.508C2283.408,928.585,2283.993,930.357,2283.655,932.811z M2304.414,914.972
	c-0.441-1.078,0.149-1.932,0.785-2.339l0.912-0.298l1.078,0.522l0.315,0.499c0.47,1.268,0.241,2.873-0.699,4.88
	C2305.755,917.312,2304.918,916.193,2304.414,914.972z"/>
<path style="fill:#121F25;" d="M171.837,578.953l0.156-0.245l0.187-0.277l0.16-0.232l0.189-0.262l0.164-0.223l0.192-0.249
	l0.168-0.211l0.189-0.23l0.184-0.214l0.184-0.206l0.189-0.203l0.183-0.19l0.203-0.198l0.182-0.174l0.214-0.191l0.168-0.147
	l0.247-0.2l0.15-0.119l0.281-0.204l0.121-0.086l0.411-0.266c1.872-1.137,3.829-2.201,5.863-3.195
	c-36.508-17.831-70.583-35.262-101.943-51.877c-2.844-1.514-6.417-0.424-7.937,2.443c-1.519,2.862-0.424,6.417,2.443,7.937
	c32.209,17.065,64.606,33.579,97.138,49.525l0.129-0.214L171.837,578.953z"/>
</svg>
